<?xml version="1.0" encoding="UTF-8" standalone="no"?>
<!-- Created with Inkscape (http://www.inkscape.org/) -->

<svg
   xmlns:dc="http://purl.org/dc/elements/1.1/"
   xmlns:cc="http://creativecommons.org/ns#"
   xmlns:rdf="http://www.w3.org/1999/02/22-rdf-syntax-ns#"
   xmlns:svg="http://www.w3.org/2000/svg"
   xmlns="http://www.w3.org/2000/svg"
   xmlns:xlink="http://www.w3.org/1999/xlink"
   xmlns:sodipodi="http://sodipodi.sourceforge.net/DTD/sodipodi-0.dtd"
   xmlns:inkscape="http://www.inkscape.org/namespaces/inkscape"
   width="154.44003"
   height="94.040298"
   viewBox="0 0 40.862257 24.881496"
   version="1.1"
   id="svg4374"
   inkscape:version="0.92.3 (2405546, 2018-03-11)"
   sodipodi:docname="Trim.svg"
   inkscape:export-filename="/home/sylvain/Workspaces/beepbeep/core/Core/src/doc-files/util/Unpack.png"
   inkscape:export-xdpi="64"
   inkscape:export-ydpi="64">
  <defs
     id="defs4368">
    <pattern
       patternTransform="translate(135.54059,324.51359)"
       id="pattern4364"
       xlink:href="#pattern10938-758-124-313"
       inkscape:collect="always" />
    <pattern
       patternTransform="translate(135.54059,324.51359)"
       id="pattern4362"
       xlink:href="#pattern10938-758-124-313"
       inkscape:collect="always" />
    <pattern
       id="pattern10938-758-124-313"
       patternTransform="translate(105.32577,298.98598)"
       height="22.497425"
       width="13.498456"
       patternUnits="userSpaceOnUse">
      <rect
         style="fill:url(#pattern10936-906-732-194);stroke:none"
         width="13.498456"
         height="22.497425"
         x="2.7339242e-015"
         y="-2.8144154e-014"
         id="rect12091" />
    </pattern>
    <pattern
       patternTransform="matrix(0.3213918,0,0,0.32139182,2.4829098e-6,-1.2431639e-5)"
       id="pattern10936-906-732-194"
       xlink:href="#pattern10926-828-791-730"
       inkscape:collect="always" />
    <pattern
       id="pattern10926-828-791-730"
       patternTransform="translate(105.32577,298.98598)"
       height="69.999989"
       width="41.999994"
       patternUnits="userSpaceOnUse">
      <path
         inkscape:connector-curvature="0"
         style="opacity:1;fill:#008080;fill-opacity:1;fill-rule:nonzero;stroke:none;stroke-width:2;stroke-linecap:round;stroke-linejoin:round;stroke-miterlimit:4;stroke-dasharray:6, 2;stroke-dashoffset:0;stroke-opacity:1"
         d="m 41.999994,6.9999993 a 13.999999,14 0 0 0 -0.99023,0.03515 13.999999,14 0 0 0 -1.38868,0.16797 13.999999,14 0 0 0 -1.365229,0.30664 13.999999,14 0 0 0 -1.32813,0.4414099 13.999999,14 0 0 0 -1.27734,0.57226 13.999999,14 0 0 0 -1.21484,0.6953199 13.999999,14 0 0 0 -1.13867,0.8144499 13.999999,14 0 0 0 -1.05079,0.92383 13.999999,14 0 0 0 -0.953119,1.02344 13.999999,14 0 0 0 -0.84766,1.11523 13.999999,14 0 0 0 -0.73242,1.19141 13.999999,14 0 0 0 -0.60742,1.261709 13.999999,14 0 0 0 -0.48047,1.31446 13.999999,14 0 0 0 -0.3457,1.35547 13.999999,14 0 0 0 -0.20899,1.38281 13.999999,14 0 0 0 -0.07031,1.39844 13.999999,14 0 0 0 0.03516,0.99023 13.999999,14 0 0 0 0.16796,1.38867 13.999999,14 0 0 0 0.30665,1.36524 13.999999,14 0 0 0 0.4414,1.328119 13.999999,14 0 0 0 0.57227,1.27735 13.999999,14 0 0 0 0.69531,1.21484 13.999999,14 0 0 0 0.81445,1.13867 13.999999,14 0 0 0 0.923829,1.05078 13.999999,14 0 0 0 1.02344,0.95313 13.999999,14 0 0 0 1.11523,0.84765 13.999999,14 0 0 0 1.19141,0.73047 13.999999,14 0 0 0 1.26172,0.60938 13.999999,14 0 0 0 1.31445,0.48047 13.999999,14 0 0 0 1.355469,0.3457 13.999999,14 0 0 0 1.38281,0.20898 13.999999,14 0 0 0 1.39844,0.07032 l 0,-27.9999977 z"
         id="path12095" />
      <path
         inkscape:connector-curvature="0"
         style="opacity:1;fill:#de87aa;fill-opacity:1;fill-rule:nonzero;stroke:none;stroke-width:2;stroke-linecap:round;stroke-linejoin:round;stroke-miterlimit:4;stroke-dasharray:6, 2;stroke-dashoffset:0;stroke-opacity:1"
         d="m 0,0 0,6.9999993 a 13.999997,13.999999 0 0 1 1.3984398,0.07031 13.999997,13.999999 0 0 1 1.3828098,0.20898 13.999997,13.999999 0 0 1 1.3554698,0.3457099 13.999997,13.999999 0 0 1 1.3144498,0.48047 13.999997,13.999999 0 0 1 1.2617198,0.6074199 13.999997,13.999999 0 0 1 1.1914099,0.73242 13.999997,13.999999 0 0 1 1.1152298,0.8476599 13.999997,13.999999 0 0 1 1.0234403,0.95312 13.999997,13.999999 0 0 1 0.923829,1.05078 13.999997,13.999999 0 0 1 0.81445,1.13867 13.999997,13.999999 0 0 1 0.69531,1.21485 13.999997,13.999999 0 0 1 0.57227,1.277339 13.999997,13.999999 0 0 1 0.4414,1.32617 13.999997,13.999999 0 0 1 0.30665,1.36719 13.999997,13.999999 0 0 1 0.16796,1.38867 13.999997,13.999999 0 0 1 0.03516,0.99024 13.999997,13.999999 0 0 1 -0.07031,1.39843 13.999997,13.999999 0 0 1 -0.20899,1.38282 13.999997,13.999999 0 0 1 -0.3457,1.35546 13.999997,13.999999 0 0 1 -0.48047,1.314459 13.999997,13.999999 0 0 1 -0.60742,1.25976 13.999997,13.999999 0 0 1 -0.73242,1.19336 13.999997,13.999999 0 0 1 -0.84766,1.11524 13.999997,13.999999 0 0 1 -0.9531194,1.02344 13.999997,13.999999 0 0 1 -1.0507898,0.92382 13.999997,13.999999 0 0 1 -1.1386699,0.81446 13.999997,13.999999 0 0 1 -1.2148398,0.69531 13.999997,13.999999 0 0 1 -1.2773398,0.57226 13.999997,13.999999 0 0 1 -1.3281298,0.44141 13.999997,13.999999 0 0 1 -1.3652298,0.30664 13.999997,13.999999 0 0 1 -1.38867984,0.16797 A 13.999997,13.999999 0 0 1 0,34.999997 l 0,34.999992 41.999994,0 0,-34.999992 a 13.999999,14 0 0 1 -1.39844,-0.07032 13.999999,14 0 0 1 -1.38281,-0.20898 13.999999,14 0 0 1 -1.355469,-0.3457 13.999999,14 0 0 1 -1.31445,-0.48047 13.999999,14 0 0 1 -1.26172,-0.60938 13.999999,14 0 0 1 -1.19141,-0.73047 13.999999,14 0 0 1 -1.11523,-0.84765 13.999999,14 0 0 1 -1.02344,-0.95313 13.999999,14 0 0 1 -0.923829,-1.05078 13.999999,14 0 0 1 -0.81445,-1.13867 13.999999,14 0 0 1 -0.69531,-1.21484 13.999999,14 0 0 1 -0.57227,-1.27735 13.999999,14 0 0 1 -0.4414,-1.328119 13.999999,14 0 0 1 -0.30665,-1.36524 13.999999,14 0 0 1 -0.16796,-1.38867 13.999999,14 0 0 1 -0.03516,-0.99023 13.999999,14 0 0 1 0.07031,-1.39844 13.999999,14 0 0 1 0.20899,-1.38281 13.999999,14 0 0 1 0.3457,-1.35547 13.999999,14 0 0 1 0.48047,-1.31446 13.999999,14 0 0 1 0.60742,-1.261709 13.999999,14 0 0 1 0.73242,-1.19141 13.999999,14 0 0 1 0.84766,-1.11523 13.999999,14 0 0 1 0.953119,-1.02344 13.999999,14 0 0 1 1.05079,-0.92383 13.999999,14 0 0 1 1.13867,-0.8144499 13.999999,14 0 0 1 1.21484,-0.6953199 13.999999,14 0 0 1 1.27734,-0.57226 13.999999,14 0 0 1 1.32813,-0.4414099 13.999999,14 0 0 1 1.365229,-0.30664 13.999999,14 0 0 1 1.38868,-0.16797 13.999999,14 0 0 1 0.99023,-0.03515 L 41.999994,0 0,0 Z"
         id="path12097" />
      <circle
         r="14.000001"
         style="opacity:1;fill:#008080;fill-opacity:1;fill-rule:nonzero;stroke:none;stroke-width:2;stroke-linecap:round;stroke-linejoin:round;stroke-miterlimit:4;stroke-dasharray:6.00000011, 2.00000002;stroke-dashoffset:0;stroke-opacity:1"
         id="circle12099"
         cx="21.000109"
         cy="55.999813" />
      <path
         inkscape:connector-curvature="0"
         style="opacity:1;fill:#008080;fill-opacity:1;fill-rule:nonzero;stroke:none;stroke-width:2;stroke-linecap:round;stroke-linejoin:round;stroke-miterlimit:4;stroke-dasharray:6, 2;stroke-dashoffset:0;stroke-opacity:1"
         d="m 0,34.999997 a 13.999999,14 0 0 0 0.99022986,-0.03516 13.999999,14 0 0 0 1.38867984,-0.16797 13.999999,14 0 0 0 1.3652298,-0.30664 13.999999,14 0 0 0 1.3281298,-0.44141 13.999999,14 0 0 0 1.2773398,-0.57226 13.999999,14 0 0 0 1.2148398,-0.69531 13.999999,14 0 0 0 1.1386699,-0.81446 13.999999,14 0 0 0 1.0507898,-0.92382 13.999999,14 0 0 0 0.9531194,-1.02344 13.999999,14 0 0 0 0.84766,-1.11524 13.999999,14 0 0 0 0.73242,-1.19336 13.999999,14 0 0 0 0.60742,-1.25976 13.999999,14 0 0 0 0.48047,-1.314459 13.999999,14 0 0 0 0.3457,-1.35546 13.999999,14 0 0 0 0.20899,-1.38282 13.999999,14 0 0 0 0.07031,-1.39843 13.999999,14 0 0 0 -0.03516,-0.99024 13.999999,14 0 0 0 -0.16796,-1.38867 13.999999,14 0 0 0 -0.30665,-1.36719 13.999999,14 0 0 0 -0.4414,-1.32617 13.999999,14 0 0 0 -0.57227,-1.277339 13.999999,14 0 0 0 -0.69531,-1.21485 13.999999,14 0 0 0 -0.81445,-1.13867 13.999999,14 0 0 0 -0.923829,-1.05078 A 13.999999,14 0 0 0 9.0195287,10.292969 13.999999,14 0 0 0 7.9042989,9.4453091 13.999999,14 0 0 0 6.712889,8.7128891 13.999999,14 0 0 0 5.4511692,8.1054692 13.999999,14 0 0 0 4.1367194,7.6249992 13.999999,14 0 0 0 2.7812496,7.2792893 13.999999,14 0 0 0 1.3984398,7.0703093 13.999999,14 0 0 0 0,6.9999993 L 0,34.999997 Z"
         id="path12101" />
    </pattern>
    <pattern
       id="pattern4307"
       patternTransform="translate(105.32577,298.98598)"
       height="22.497425"
       width="13.498456"
       patternUnits="userSpaceOnUse">
      <rect
         style="fill:url(#pattern10936-906-732-194);stroke:none"
         width="13.498456"
         height="22.497425"
         x="2.7339242e-015"
         y="-2.8144154e-014"
         id="rect4305" />
    </pattern>
    <pattern
       patternTransform="matrix(0.3213918,0,0,0.32139182,2.4829098e-6,-1.2431639e-5)"
       id="pattern4309"
       xlink:href="#pattern10926-828-791-730"
       inkscape:collect="always" />
    <pattern
       id="pattern4319"
       patternTransform="translate(105.32577,298.98598)"
       height="69.999989"
       width="41.999994"
       patternUnits="userSpaceOnUse">
      <path
         inkscape:connector-curvature="0"
         style="opacity:1;fill:#008080;fill-opacity:1;fill-rule:nonzero;stroke:none;stroke-width:2;stroke-linecap:round;stroke-linejoin:round;stroke-miterlimit:4;stroke-dasharray:6, 2;stroke-dashoffset:0;stroke-opacity:1"
         d="m 41.999994,6.9999993 a 13.999999,14 0 0 0 -0.99023,0.03515 13.999999,14 0 0 0 -1.38868,0.16797 13.999999,14 0 0 0 -1.365229,0.30664 13.999999,14 0 0 0 -1.32813,0.4414099 13.999999,14 0 0 0 -1.27734,0.57226 13.999999,14 0 0 0 -1.21484,0.6953199 13.999999,14 0 0 0 -1.13867,0.8144499 13.999999,14 0 0 0 -1.05079,0.92383 13.999999,14 0 0 0 -0.953119,1.02344 13.999999,14 0 0 0 -0.84766,1.11523 13.999999,14 0 0 0 -0.73242,1.19141 13.999999,14 0 0 0 -0.60742,1.261709 13.999999,14 0 0 0 -0.48047,1.31446 13.999999,14 0 0 0 -0.3457,1.35547 13.999999,14 0 0 0 -0.20899,1.38281 13.999999,14 0 0 0 -0.07031,1.39844 13.999999,14 0 0 0 0.03516,0.99023 13.999999,14 0 0 0 0.16796,1.38867 13.999999,14 0 0 0 0.30665,1.36524 13.999999,14 0 0 0 0.4414,1.328119 13.999999,14 0 0 0 0.57227,1.27735 13.999999,14 0 0 0 0.69531,1.21484 13.999999,14 0 0 0 0.81445,1.13867 13.999999,14 0 0 0 0.923829,1.05078 13.999999,14 0 0 0 1.02344,0.95313 13.999999,14 0 0 0 1.11523,0.84765 13.999999,14 0 0 0 1.19141,0.73047 13.999999,14 0 0 0 1.26172,0.60938 13.999999,14 0 0 0 1.31445,0.48047 13.999999,14 0 0 0 1.355469,0.3457 13.999999,14 0 0 0 1.38281,0.20898 13.999999,14 0 0 0 1.39844,0.07032 l 0,-27.9999977 z"
         id="path4311" />
      <path
         inkscape:connector-curvature="0"
         style="opacity:1;fill:#de87aa;fill-opacity:1;fill-rule:nonzero;stroke:none;stroke-width:2;stroke-linecap:round;stroke-linejoin:round;stroke-miterlimit:4;stroke-dasharray:6, 2;stroke-dashoffset:0;stroke-opacity:1"
         d="m 0,0 0,6.9999993 a 13.999997,13.999999 0 0 1 1.3984398,0.07031 13.999997,13.999999 0 0 1 1.3828098,0.20898 13.999997,13.999999 0 0 1 1.3554698,0.3457099 13.999997,13.999999 0 0 1 1.3144498,0.48047 13.999997,13.999999 0 0 1 1.2617198,0.6074199 13.999997,13.999999 0 0 1 1.1914099,0.73242 13.999997,13.999999 0 0 1 1.1152298,0.8476599 13.999997,13.999999 0 0 1 1.0234403,0.95312 13.999997,13.999999 0 0 1 0.923829,1.05078 13.999997,13.999999 0 0 1 0.81445,1.13867 13.999997,13.999999 0 0 1 0.69531,1.21485 13.999997,13.999999 0 0 1 0.57227,1.277339 13.999997,13.999999 0 0 1 0.4414,1.32617 13.999997,13.999999 0 0 1 0.30665,1.36719 13.999997,13.999999 0 0 1 0.16796,1.38867 13.999997,13.999999 0 0 1 0.03516,0.99024 13.999997,13.999999 0 0 1 -0.07031,1.39843 13.999997,13.999999 0 0 1 -0.20899,1.38282 13.999997,13.999999 0 0 1 -0.3457,1.35546 13.999997,13.999999 0 0 1 -0.48047,1.314459 13.999997,13.999999 0 0 1 -0.60742,1.25976 13.999997,13.999999 0 0 1 -0.73242,1.19336 13.999997,13.999999 0 0 1 -0.84766,1.11524 13.999997,13.999999 0 0 1 -0.9531194,1.02344 13.999997,13.999999 0 0 1 -1.0507898,0.92382 13.999997,13.999999 0 0 1 -1.1386699,0.81446 13.999997,13.999999 0 0 1 -1.2148398,0.69531 13.999997,13.999999 0 0 1 -1.2773398,0.57226 13.999997,13.999999 0 0 1 -1.3281298,0.44141 13.999997,13.999999 0 0 1 -1.3652298,0.30664 13.999997,13.999999 0 0 1 -1.38867984,0.16797 A 13.999997,13.999999 0 0 1 0,34.999997 l 0,34.999992 41.999994,0 0,-34.999992 a 13.999999,14 0 0 1 -1.39844,-0.07032 13.999999,14 0 0 1 -1.38281,-0.20898 13.999999,14 0 0 1 -1.355469,-0.3457 13.999999,14 0 0 1 -1.31445,-0.48047 13.999999,14 0 0 1 -1.26172,-0.60938 13.999999,14 0 0 1 -1.19141,-0.73047 13.999999,14 0 0 1 -1.11523,-0.84765 13.999999,14 0 0 1 -1.02344,-0.95313 13.999999,14 0 0 1 -0.923829,-1.05078 13.999999,14 0 0 1 -0.81445,-1.13867 13.999999,14 0 0 1 -0.69531,-1.21484 13.999999,14 0 0 1 -0.57227,-1.27735 13.999999,14 0 0 1 -0.4414,-1.328119 13.999999,14 0 0 1 -0.30665,-1.36524 13.999999,14 0 0 1 -0.16796,-1.38867 13.999999,14 0 0 1 -0.03516,-0.99023 13.999999,14 0 0 1 0.07031,-1.39844 13.999999,14 0 0 1 0.20899,-1.38281 13.999999,14 0 0 1 0.3457,-1.35547 13.999999,14 0 0 1 0.48047,-1.31446 13.999999,14 0 0 1 0.60742,-1.261709 13.999999,14 0 0 1 0.73242,-1.19141 13.999999,14 0 0 1 0.84766,-1.11523 13.999999,14 0 0 1 0.953119,-1.02344 13.999999,14 0 0 1 1.05079,-0.92383 13.999999,14 0 0 1 1.13867,-0.8144499 13.999999,14 0 0 1 1.21484,-0.6953199 13.999999,14 0 0 1 1.27734,-0.57226 13.999999,14 0 0 1 1.32813,-0.4414099 13.999999,14 0 0 1 1.365229,-0.30664 13.999999,14 0 0 1 1.38868,-0.16797 13.999999,14 0 0 1 0.99023,-0.03515 L 41.999994,0 0,0 Z"
         id="path4313" />
      <circle
         r="14.000001"
         style="opacity:1;fill:#008080;fill-opacity:1;fill-rule:nonzero;stroke:none;stroke-width:2;stroke-linecap:round;stroke-linejoin:round;stroke-miterlimit:4;stroke-dasharray:6.00000011, 2.00000002;stroke-dashoffset:0;stroke-opacity:1"
         id="circle4315"
         cx="21.000109"
         cy="55.999813" />
      <path
         inkscape:connector-curvature="0"
         style="opacity:1;fill:#008080;fill-opacity:1;fill-rule:nonzero;stroke:none;stroke-width:2;stroke-linecap:round;stroke-linejoin:round;stroke-miterlimit:4;stroke-dasharray:6, 2;stroke-dashoffset:0;stroke-opacity:1"
         d="m 0,34.999997 a 13.999999,14 0 0 0 0.99022986,-0.03516 13.999999,14 0 0 0 1.38867984,-0.16797 13.999999,14 0 0 0 1.3652298,-0.30664 13.999999,14 0 0 0 1.3281298,-0.44141 13.999999,14 0 0 0 1.2773398,-0.57226 13.999999,14 0 0 0 1.2148398,-0.69531 13.999999,14 0 0 0 1.1386699,-0.81446 13.999999,14 0 0 0 1.0507898,-0.92382 13.999999,14 0 0 0 0.9531194,-1.02344 13.999999,14 0 0 0 0.84766,-1.11524 13.999999,14 0 0 0 0.73242,-1.19336 13.999999,14 0 0 0 0.60742,-1.25976 13.999999,14 0 0 0 0.48047,-1.314459 13.999999,14 0 0 0 0.3457,-1.35546 13.999999,14 0 0 0 0.20899,-1.38282 13.999999,14 0 0 0 0.07031,-1.39843 13.999999,14 0 0 0 -0.03516,-0.99024 13.999999,14 0 0 0 -0.16796,-1.38867 13.999999,14 0 0 0 -0.30665,-1.36719 13.999999,14 0 0 0 -0.4414,-1.32617 13.999999,14 0 0 0 -0.57227,-1.277339 13.999999,14 0 0 0 -0.69531,-1.21485 13.999999,14 0 0 0 -0.81445,-1.13867 13.999999,14 0 0 0 -0.923829,-1.05078 A 13.999999,14 0 0 0 9.0195287,10.292969 13.999999,14 0 0 0 7.9042989,9.4453091 13.999999,14 0 0 0 6.712889,8.7128891 13.999999,14 0 0 0 5.4511692,8.1054692 13.999999,14 0 0 0 4.1367194,7.6249992 13.999999,14 0 0 0 2.7812496,7.2792893 13.999999,14 0 0 0 1.3984398,7.0703093 13.999999,14 0 0 0 0,6.9999993 L 0,34.999997 Z"
         id="path4317" />
    </pattern>
    <pattern
       id="pattern4323"
       patternTransform="translate(105.32577,298.98598)"
       height="22.497425"
       width="13.498456"
       patternUnits="userSpaceOnUse">
      <rect
         style="fill:url(#pattern10936-906-732-194);stroke:none"
         width="13.498456"
         height="22.497425"
         x="2.7339242e-015"
         y="-2.8144154e-014"
         id="rect4321" />
    </pattern>
    <pattern
       patternTransform="matrix(0.3213918,0,0,0.32139182,2.4829098e-6,-1.2431639e-5)"
       id="pattern4325"
       xlink:href="#pattern10926-828-791-730"
       inkscape:collect="always" />
    <pattern
       id="pattern4335"
       patternTransform="translate(105.32577,298.98598)"
       height="69.999989"
       width="41.999994"
       patternUnits="userSpaceOnUse">
      <path
         inkscape:connector-curvature="0"
         style="opacity:1;fill:#008080;fill-opacity:1;fill-rule:nonzero;stroke:none;stroke-width:2;stroke-linecap:round;stroke-linejoin:round;stroke-miterlimit:4;stroke-dasharray:6, 2;stroke-dashoffset:0;stroke-opacity:1"
         d="m 41.999994,6.9999993 a 13.999999,14 0 0 0 -0.99023,0.03515 13.999999,14 0 0 0 -1.38868,0.16797 13.999999,14 0 0 0 -1.365229,0.30664 13.999999,14 0 0 0 -1.32813,0.4414099 13.999999,14 0 0 0 -1.27734,0.57226 13.999999,14 0 0 0 -1.21484,0.6953199 13.999999,14 0 0 0 -1.13867,0.8144499 13.999999,14 0 0 0 -1.05079,0.92383 13.999999,14 0 0 0 -0.953119,1.02344 13.999999,14 0 0 0 -0.84766,1.11523 13.999999,14 0 0 0 -0.73242,1.19141 13.999999,14 0 0 0 -0.60742,1.261709 13.999999,14 0 0 0 -0.48047,1.31446 13.999999,14 0 0 0 -0.3457,1.35547 13.999999,14 0 0 0 -0.20899,1.38281 13.999999,14 0 0 0 -0.07031,1.39844 13.999999,14 0 0 0 0.03516,0.99023 13.999999,14 0 0 0 0.16796,1.38867 13.999999,14 0 0 0 0.30665,1.36524 13.999999,14 0 0 0 0.4414,1.328119 13.999999,14 0 0 0 0.57227,1.27735 13.999999,14 0 0 0 0.69531,1.21484 13.999999,14 0 0 0 0.81445,1.13867 13.999999,14 0 0 0 0.923829,1.05078 13.999999,14 0 0 0 1.02344,0.95313 13.999999,14 0 0 0 1.11523,0.84765 13.999999,14 0 0 0 1.19141,0.73047 13.999999,14 0 0 0 1.26172,0.60938 13.999999,14 0 0 0 1.31445,0.48047 13.999999,14 0 0 0 1.355469,0.3457 13.999999,14 0 0 0 1.38281,0.20898 13.999999,14 0 0 0 1.39844,0.07032 l 0,-27.9999977 z"
         id="path4327" />
      <path
         inkscape:connector-curvature="0"
         style="opacity:1;fill:#de87aa;fill-opacity:1;fill-rule:nonzero;stroke:none;stroke-width:2;stroke-linecap:round;stroke-linejoin:round;stroke-miterlimit:4;stroke-dasharray:6, 2;stroke-dashoffset:0;stroke-opacity:1"
         d="m 0,0 0,6.9999993 a 13.999997,13.999999 0 0 1 1.3984398,0.07031 13.999997,13.999999 0 0 1 1.3828098,0.20898 13.999997,13.999999 0 0 1 1.3554698,0.3457099 13.999997,13.999999 0 0 1 1.3144498,0.48047 13.999997,13.999999 0 0 1 1.2617198,0.6074199 13.999997,13.999999 0 0 1 1.1914099,0.73242 13.999997,13.999999 0 0 1 1.1152298,0.8476599 13.999997,13.999999 0 0 1 1.0234403,0.95312 13.999997,13.999999 0 0 1 0.923829,1.05078 13.999997,13.999999 0 0 1 0.81445,1.13867 13.999997,13.999999 0 0 1 0.69531,1.21485 13.999997,13.999999 0 0 1 0.57227,1.277339 13.999997,13.999999 0 0 1 0.4414,1.32617 13.999997,13.999999 0 0 1 0.30665,1.36719 13.999997,13.999999 0 0 1 0.16796,1.38867 13.999997,13.999999 0 0 1 0.03516,0.99024 13.999997,13.999999 0 0 1 -0.07031,1.39843 13.999997,13.999999 0 0 1 -0.20899,1.38282 13.999997,13.999999 0 0 1 -0.3457,1.35546 13.999997,13.999999 0 0 1 -0.48047,1.314459 13.999997,13.999999 0 0 1 -0.60742,1.25976 13.999997,13.999999 0 0 1 -0.73242,1.19336 13.999997,13.999999 0 0 1 -0.84766,1.11524 13.999997,13.999999 0 0 1 -0.9531194,1.02344 13.999997,13.999999 0 0 1 -1.0507898,0.92382 13.999997,13.999999 0 0 1 -1.1386699,0.81446 13.999997,13.999999 0 0 1 -1.2148398,0.69531 13.999997,13.999999 0 0 1 -1.2773398,0.57226 13.999997,13.999999 0 0 1 -1.3281298,0.44141 13.999997,13.999999 0 0 1 -1.3652298,0.30664 13.999997,13.999999 0 0 1 -1.38867984,0.16797 A 13.999997,13.999999 0 0 1 0,34.999997 l 0,34.999992 41.999994,0 0,-34.999992 a 13.999999,14 0 0 1 -1.39844,-0.07032 13.999999,14 0 0 1 -1.38281,-0.20898 13.999999,14 0 0 1 -1.355469,-0.3457 13.999999,14 0 0 1 -1.31445,-0.48047 13.999999,14 0 0 1 -1.26172,-0.60938 13.999999,14 0 0 1 -1.19141,-0.73047 13.999999,14 0 0 1 -1.11523,-0.84765 13.999999,14 0 0 1 -1.02344,-0.95313 13.999999,14 0 0 1 -0.923829,-1.05078 13.999999,14 0 0 1 -0.81445,-1.13867 13.999999,14 0 0 1 -0.69531,-1.21484 13.999999,14 0 0 1 -0.57227,-1.27735 13.999999,14 0 0 1 -0.4414,-1.328119 13.999999,14 0 0 1 -0.30665,-1.36524 13.999999,14 0 0 1 -0.16796,-1.38867 13.999999,14 0 0 1 -0.03516,-0.99023 13.999999,14 0 0 1 0.07031,-1.39844 13.999999,14 0 0 1 0.20899,-1.38281 13.999999,14 0 0 1 0.3457,-1.35547 13.999999,14 0 0 1 0.48047,-1.31446 13.999999,14 0 0 1 0.60742,-1.261709 13.999999,14 0 0 1 0.73242,-1.19141 13.999999,14 0 0 1 0.84766,-1.11523 13.999999,14 0 0 1 0.953119,-1.02344 13.999999,14 0 0 1 1.05079,-0.92383 13.999999,14 0 0 1 1.13867,-0.8144499 13.999999,14 0 0 1 1.21484,-0.6953199 13.999999,14 0 0 1 1.27734,-0.57226 13.999999,14 0 0 1 1.32813,-0.4414099 13.999999,14 0 0 1 1.365229,-0.30664 13.999999,14 0 0 1 1.38868,-0.16797 13.999999,14 0 0 1 0.99023,-0.03515 L 41.999994,0 0,0 Z"
         id="path4329" />
      <circle
         r="14.000001"
         style="opacity:1;fill:#008080;fill-opacity:1;fill-rule:nonzero;stroke:none;stroke-width:2;stroke-linecap:round;stroke-linejoin:round;stroke-miterlimit:4;stroke-dasharray:6.00000011, 2.00000002;stroke-dashoffset:0;stroke-opacity:1"
         id="circle4331"
         cx="21.000109"
         cy="55.999813" />
      <path
         inkscape:connector-curvature="0"
         style="opacity:1;fill:#008080;fill-opacity:1;fill-rule:nonzero;stroke:none;stroke-width:2;stroke-linecap:round;stroke-linejoin:round;stroke-miterlimit:4;stroke-dasharray:6, 2;stroke-dashoffset:0;stroke-opacity:1"
         d="m 0,34.999997 a 13.999999,14 0 0 0 0.99022986,-0.03516 13.999999,14 0 0 0 1.38867984,-0.16797 13.999999,14 0 0 0 1.3652298,-0.30664 13.999999,14 0 0 0 1.3281298,-0.44141 13.999999,14 0 0 0 1.2773398,-0.57226 13.999999,14 0 0 0 1.2148398,-0.69531 13.999999,14 0 0 0 1.1386699,-0.81446 13.999999,14 0 0 0 1.0507898,-0.92382 13.999999,14 0 0 0 0.9531194,-1.02344 13.999999,14 0 0 0 0.84766,-1.11524 13.999999,14 0 0 0 0.73242,-1.19336 13.999999,14 0 0 0 0.60742,-1.25976 13.999999,14 0 0 0 0.48047,-1.314459 13.999999,14 0 0 0 0.3457,-1.35546 13.999999,14 0 0 0 0.20899,-1.38282 13.999999,14 0 0 0 0.07031,-1.39843 13.999999,14 0 0 0 -0.03516,-0.99024 13.999999,14 0 0 0 -0.16796,-1.38867 13.999999,14 0 0 0 -0.30665,-1.36719 13.999999,14 0 0 0 -0.4414,-1.32617 13.999999,14 0 0 0 -0.57227,-1.277339 13.999999,14 0 0 0 -0.69531,-1.21485 13.999999,14 0 0 0 -0.81445,-1.13867 13.999999,14 0 0 0 -0.923829,-1.05078 A 13.999999,14 0 0 0 9.0195287,10.292969 13.999999,14 0 0 0 7.9042989,9.4453091 13.999999,14 0 0 0 6.712889,8.7128891 13.999999,14 0 0 0 5.4511692,8.1054692 13.999999,14 0 0 0 4.1367194,7.6249992 13.999999,14 0 0 0 2.7812496,7.2792893 13.999999,14 0 0 0 1.3984398,7.0703093 13.999999,14 0 0 0 0,6.9999993 L 0,34.999997 Z"
         id="path4333" />
    </pattern>
    <pattern
       patternTransform="translate(135.54059,78.208374)"
       id="pattern5404"
       xlink:href="#pattern10938-758-124-313-9"
       inkscape:collect="always" />
    <pattern
       patternTransform="translate(135.54059,78.208374)"
       id="pattern5402"
       xlink:href="#pattern10938-758-124-313-9"
       inkscape:collect="always" />
    <pattern
       id="pattern10938-758-124-313-9"
       patternTransform="translate(105.32577,298.98598)"
       height="22.497425"
       width="13.498456"
       patternUnits="userSpaceOnUse">
      <rect
         style="fill:url(#pattern10936-906-732-194-8);stroke:none"
         width="13.498456"
         height="22.497425"
         x="2.7339242e-015"
         y="-2.8144154e-014"
         id="rect12091-9" />
    </pattern>
    <pattern
       patternTransform="matrix(0.3213918,0,0,0.32139182,2.4829098e-6,-1.2431639e-5)"
       id="pattern10936-906-732-194-8"
       xlink:href="#pattern10926-828-791-730-9"
       inkscape:collect="always" />
    <pattern
       id="pattern10926-828-791-730-9"
       patternTransform="translate(105.32577,298.98598)"
       height="69.999989"
       width="41.999994"
       patternUnits="userSpaceOnUse">
      <path
         inkscape:connector-curvature="0"
         style="opacity:1;fill:#008080;fill-opacity:1;fill-rule:nonzero;stroke:none;stroke-width:2;stroke-linecap:round;stroke-linejoin:round;stroke-miterlimit:4;stroke-dasharray:6, 2;stroke-dashoffset:0;stroke-opacity:1"
         d="m 41.999994,6.9999993 a 13.999999,14 0 0 0 -0.99023,0.03515 13.999999,14 0 0 0 -1.38868,0.16797 13.999999,14 0 0 0 -1.365229,0.30664 13.999999,14 0 0 0 -1.32813,0.4414099 13.999999,14 0 0 0 -1.27734,0.57226 13.999999,14 0 0 0 -1.21484,0.6953199 13.999999,14 0 0 0 -1.13867,0.8144499 13.999999,14 0 0 0 -1.05079,0.92383 13.999999,14 0 0 0 -0.953119,1.02344 13.999999,14 0 0 0 -0.84766,1.11523 13.999999,14 0 0 0 -0.73242,1.19141 13.999999,14 0 0 0 -0.60742,1.261709 13.999999,14 0 0 0 -0.48047,1.31446 13.999999,14 0 0 0 -0.3457,1.35547 13.999999,14 0 0 0 -0.20899,1.38281 13.999999,14 0 0 0 -0.07031,1.39844 13.999999,14 0 0 0 0.03516,0.99023 13.999999,14 0 0 0 0.16796,1.38867 13.999999,14 0 0 0 0.30665,1.36524 13.999999,14 0 0 0 0.4414,1.328119 13.999999,14 0 0 0 0.57227,1.27735 13.999999,14 0 0 0 0.69531,1.21484 13.999999,14 0 0 0 0.81445,1.13867 13.999999,14 0 0 0 0.923829,1.05078 13.999999,14 0 0 0 1.02344,0.95313 13.999999,14 0 0 0 1.11523,0.84765 13.999999,14 0 0 0 1.19141,0.73047 13.999999,14 0 0 0 1.26172,0.60938 13.999999,14 0 0 0 1.31445,0.48047 13.999999,14 0 0 0 1.355469,0.3457 13.999999,14 0 0 0 1.38281,0.20898 13.999999,14 0 0 0 1.39844,0.07032 l 0,-27.9999977 z"
         id="path12095-3" />
      <path
         inkscape:connector-curvature="0"
         style="opacity:1;fill:#de87aa;fill-opacity:1;fill-rule:nonzero;stroke:none;stroke-width:2;stroke-linecap:round;stroke-linejoin:round;stroke-miterlimit:4;stroke-dasharray:6, 2;stroke-dashoffset:0;stroke-opacity:1"
         d="m 0,0 0,6.9999993 a 13.999997,13.999999 0 0 1 1.3984398,0.07031 13.999997,13.999999 0 0 1 1.3828098,0.20898 13.999997,13.999999 0 0 1 1.3554698,0.3457099 13.999997,13.999999 0 0 1 1.3144498,0.48047 13.999997,13.999999 0 0 1 1.2617198,0.6074199 13.999997,13.999999 0 0 1 1.1914099,0.73242 13.999997,13.999999 0 0 1 1.1152298,0.8476599 13.999997,13.999999 0 0 1 1.0234403,0.95312 13.999997,13.999999 0 0 1 0.923829,1.05078 13.999997,13.999999 0 0 1 0.81445,1.13867 13.999997,13.999999 0 0 1 0.69531,1.21485 13.999997,13.999999 0 0 1 0.57227,1.277339 13.999997,13.999999 0 0 1 0.4414,1.32617 13.999997,13.999999 0 0 1 0.30665,1.36719 13.999997,13.999999 0 0 1 0.16796,1.38867 13.999997,13.999999 0 0 1 0.03516,0.99024 13.999997,13.999999 0 0 1 -0.07031,1.39843 13.999997,13.999999 0 0 1 -0.20899,1.38282 13.999997,13.999999 0 0 1 -0.3457,1.35546 13.999997,13.999999 0 0 1 -0.48047,1.314459 13.999997,13.999999 0 0 1 -0.60742,1.25976 13.999997,13.999999 0 0 1 -0.73242,1.19336 13.999997,13.999999 0 0 1 -0.84766,1.11524 13.999997,13.999999 0 0 1 -0.9531194,1.02344 13.999997,13.999999 0 0 1 -1.0507898,0.92382 13.999997,13.999999 0 0 1 -1.1386699,0.81446 13.999997,13.999999 0 0 1 -1.2148398,0.69531 13.999997,13.999999 0 0 1 -1.2773398,0.57226 13.999997,13.999999 0 0 1 -1.3281298,0.44141 13.999997,13.999999 0 0 1 -1.3652298,0.30664 13.999997,13.999999 0 0 1 -1.38867984,0.16797 A 13.999997,13.999999 0 0 1 0,34.999997 l 0,34.999992 41.999994,0 0,-34.999992 a 13.999999,14 0 0 1 -1.39844,-0.07032 13.999999,14 0 0 1 -1.38281,-0.20898 13.999999,14 0 0 1 -1.355469,-0.3457 13.999999,14 0 0 1 -1.31445,-0.48047 13.999999,14 0 0 1 -1.26172,-0.60938 13.999999,14 0 0 1 -1.19141,-0.73047 13.999999,14 0 0 1 -1.11523,-0.84765 13.999999,14 0 0 1 -1.02344,-0.95313 13.999999,14 0 0 1 -0.923829,-1.05078 13.999999,14 0 0 1 -0.81445,-1.13867 13.999999,14 0 0 1 -0.69531,-1.21484 13.999999,14 0 0 1 -0.57227,-1.27735 13.999999,14 0 0 1 -0.4414,-1.328119 13.999999,14 0 0 1 -0.30665,-1.36524 13.999999,14 0 0 1 -0.16796,-1.38867 13.999999,14 0 0 1 -0.03516,-0.99023 13.999999,14 0 0 1 0.07031,-1.39844 13.999999,14 0 0 1 0.20899,-1.38281 13.999999,14 0 0 1 0.3457,-1.35547 13.999999,14 0 0 1 0.48047,-1.31446 13.999999,14 0 0 1 0.60742,-1.261709 13.999999,14 0 0 1 0.73242,-1.19141 13.999999,14 0 0 1 0.84766,-1.11523 13.999999,14 0 0 1 0.953119,-1.02344 13.999999,14 0 0 1 1.05079,-0.92383 13.999999,14 0 0 1 1.13867,-0.8144499 13.999999,14 0 0 1 1.21484,-0.6953199 13.999999,14 0 0 1 1.27734,-0.57226 13.999999,14 0 0 1 1.32813,-0.4414099 13.999999,14 0 0 1 1.365229,-0.30664 13.999999,14 0 0 1 1.38868,-0.16797 13.999999,14 0 0 1 0.99023,-0.03515 L 41.999994,0 0,0 Z"
         id="path12097-6" />
      <circle
         r="14.000001"
         style="opacity:1;fill:#008080;fill-opacity:1;fill-rule:nonzero;stroke:none;stroke-width:2;stroke-linecap:round;stroke-linejoin:round;stroke-miterlimit:4;stroke-dasharray:6.00000011, 2.00000002;stroke-dashoffset:0;stroke-opacity:1"
         id="circle12099-3"
         cx="21.000109"
         cy="55.999813" />
      <path
         inkscape:connector-curvature="0"
         style="opacity:1;fill:#008080;fill-opacity:1;fill-rule:nonzero;stroke:none;stroke-width:2;stroke-linecap:round;stroke-linejoin:round;stroke-miterlimit:4;stroke-dasharray:6, 2;stroke-dashoffset:0;stroke-opacity:1"
         d="m 0,34.999997 a 13.999999,14 0 0 0 0.99022986,-0.03516 13.999999,14 0 0 0 1.38867984,-0.16797 13.999999,14 0 0 0 1.3652298,-0.30664 13.999999,14 0 0 0 1.3281298,-0.44141 13.999999,14 0 0 0 1.2773398,-0.57226 13.999999,14 0 0 0 1.2148398,-0.69531 13.999999,14 0 0 0 1.1386699,-0.81446 13.999999,14 0 0 0 1.0507898,-0.92382 13.999999,14 0 0 0 0.9531194,-1.02344 13.999999,14 0 0 0 0.84766,-1.11524 13.999999,14 0 0 0 0.73242,-1.19336 13.999999,14 0 0 0 0.60742,-1.25976 13.999999,14 0 0 0 0.48047,-1.314459 13.999999,14 0 0 0 0.3457,-1.35546 13.999999,14 0 0 0 0.20899,-1.38282 13.999999,14 0 0 0 0.07031,-1.39843 13.999999,14 0 0 0 -0.03516,-0.99024 13.999999,14 0 0 0 -0.16796,-1.38867 13.999999,14 0 0 0 -0.30665,-1.36719 13.999999,14 0 0 0 -0.4414,-1.32617 13.999999,14 0 0 0 -0.57227,-1.277339 13.999999,14 0 0 0 -0.69531,-1.21485 13.999999,14 0 0 0 -0.81445,-1.13867 13.999999,14 0 0 0 -0.923829,-1.05078 A 13.999999,14 0 0 0 9.0195287,10.292969 13.999999,14 0 0 0 7.9042989,9.4453091 13.999999,14 0 0 0 6.712889,8.7128891 13.999999,14 0 0 0 5.4511692,8.1054692 13.999999,14 0 0 0 4.1367194,7.6249992 13.999999,14 0 0 0 2.7812496,7.2792893 13.999999,14 0 0 0 1.3984398,7.0703093 13.999999,14 0 0 0 0,6.9999993 L 0,34.999997 Z"
         id="path12101-6" />
    </pattern>
    <pattern
       id="pattern5352"
       patternTransform="translate(105.32577,298.98598)"
       height="22.497425"
       width="13.498456"
       patternUnits="userSpaceOnUse">
      <rect
         style="fill:url(#pattern10936-906-732-194-8);stroke:none"
         width="13.498456"
         height="22.497425"
         x="2.7339242e-015"
         y="-2.8144154e-014"
         id="rect5350" />
    </pattern>
    <pattern
       patternTransform="matrix(0.3213918,0,0,0.32139182,2.4829098e-6,-1.2431639e-5)"
       id="pattern5354"
       xlink:href="#pattern10926-828-791-730-9"
       inkscape:collect="always" />
    <pattern
       id="pattern5364"
       patternTransform="translate(105.32577,298.98598)"
       height="69.999989"
       width="41.999994"
       patternUnits="userSpaceOnUse">
      <path
         inkscape:connector-curvature="0"
         style="opacity:1;fill:#008080;fill-opacity:1;fill-rule:nonzero;stroke:none;stroke-width:2;stroke-linecap:round;stroke-linejoin:round;stroke-miterlimit:4;stroke-dasharray:6, 2;stroke-dashoffset:0;stroke-opacity:1"
         d="m 41.999994,6.9999993 a 13.999999,14 0 0 0 -0.99023,0.03515 13.999999,14 0 0 0 -1.38868,0.16797 13.999999,14 0 0 0 -1.365229,0.30664 13.999999,14 0 0 0 -1.32813,0.4414099 13.999999,14 0 0 0 -1.27734,0.57226 13.999999,14 0 0 0 -1.21484,0.6953199 13.999999,14 0 0 0 -1.13867,0.8144499 13.999999,14 0 0 0 -1.05079,0.92383 13.999999,14 0 0 0 -0.953119,1.02344 13.999999,14 0 0 0 -0.84766,1.11523 13.999999,14 0 0 0 -0.73242,1.19141 13.999999,14 0 0 0 -0.60742,1.261709 13.999999,14 0 0 0 -0.48047,1.31446 13.999999,14 0 0 0 -0.3457,1.35547 13.999999,14 0 0 0 -0.20899,1.38281 13.999999,14 0 0 0 -0.07031,1.39844 13.999999,14 0 0 0 0.03516,0.99023 13.999999,14 0 0 0 0.16796,1.38867 13.999999,14 0 0 0 0.30665,1.36524 13.999999,14 0 0 0 0.4414,1.328119 13.999999,14 0 0 0 0.57227,1.27735 13.999999,14 0 0 0 0.69531,1.21484 13.999999,14 0 0 0 0.81445,1.13867 13.999999,14 0 0 0 0.923829,1.05078 13.999999,14 0 0 0 1.02344,0.95313 13.999999,14 0 0 0 1.11523,0.84765 13.999999,14 0 0 0 1.19141,0.73047 13.999999,14 0 0 0 1.26172,0.60938 13.999999,14 0 0 0 1.31445,0.48047 13.999999,14 0 0 0 1.355469,0.3457 13.999999,14 0 0 0 1.38281,0.20898 13.999999,14 0 0 0 1.39844,0.07032 l 0,-27.9999977 z"
         id="path5356" />
      <path
         inkscape:connector-curvature="0"
         style="opacity:1;fill:#de87aa;fill-opacity:1;fill-rule:nonzero;stroke:none;stroke-width:2;stroke-linecap:round;stroke-linejoin:round;stroke-miterlimit:4;stroke-dasharray:6, 2;stroke-dashoffset:0;stroke-opacity:1"
         d="m 0,0 0,6.9999993 a 13.999997,13.999999 0 0 1 1.3984398,0.07031 13.999997,13.999999 0 0 1 1.3828098,0.20898 13.999997,13.999999 0 0 1 1.3554698,0.3457099 13.999997,13.999999 0 0 1 1.3144498,0.48047 13.999997,13.999999 0 0 1 1.2617198,0.6074199 13.999997,13.999999 0 0 1 1.1914099,0.73242 13.999997,13.999999 0 0 1 1.1152298,0.8476599 13.999997,13.999999 0 0 1 1.0234403,0.95312 13.999997,13.999999 0 0 1 0.923829,1.05078 13.999997,13.999999 0 0 1 0.81445,1.13867 13.999997,13.999999 0 0 1 0.69531,1.21485 13.999997,13.999999 0 0 1 0.57227,1.277339 13.999997,13.999999 0 0 1 0.4414,1.32617 13.999997,13.999999 0 0 1 0.30665,1.36719 13.999997,13.999999 0 0 1 0.16796,1.38867 13.999997,13.999999 0 0 1 0.03516,0.99024 13.999997,13.999999 0 0 1 -0.07031,1.39843 13.999997,13.999999 0 0 1 -0.20899,1.38282 13.999997,13.999999 0 0 1 -0.3457,1.35546 13.999997,13.999999 0 0 1 -0.48047,1.314459 13.999997,13.999999 0 0 1 -0.60742,1.25976 13.999997,13.999999 0 0 1 -0.73242,1.19336 13.999997,13.999999 0 0 1 -0.84766,1.11524 13.999997,13.999999 0 0 1 -0.9531194,1.02344 13.999997,13.999999 0 0 1 -1.0507898,0.92382 13.999997,13.999999 0 0 1 -1.1386699,0.81446 13.999997,13.999999 0 0 1 -1.2148398,0.69531 13.999997,13.999999 0 0 1 -1.2773398,0.57226 13.999997,13.999999 0 0 1 -1.3281298,0.44141 13.999997,13.999999 0 0 1 -1.3652298,0.30664 13.999997,13.999999 0 0 1 -1.38867984,0.16797 A 13.999997,13.999999 0 0 1 0,34.999997 l 0,34.999992 41.999994,0 0,-34.999992 a 13.999999,14 0 0 1 -1.39844,-0.07032 13.999999,14 0 0 1 -1.38281,-0.20898 13.999999,14 0 0 1 -1.355469,-0.3457 13.999999,14 0 0 1 -1.31445,-0.48047 13.999999,14 0 0 1 -1.26172,-0.60938 13.999999,14 0 0 1 -1.19141,-0.73047 13.999999,14 0 0 1 -1.11523,-0.84765 13.999999,14 0 0 1 -1.02344,-0.95313 13.999999,14 0 0 1 -0.923829,-1.05078 13.999999,14 0 0 1 -0.81445,-1.13867 13.999999,14 0 0 1 -0.69531,-1.21484 13.999999,14 0 0 1 -0.57227,-1.27735 13.999999,14 0 0 1 -0.4414,-1.328119 13.999999,14 0 0 1 -0.30665,-1.36524 13.999999,14 0 0 1 -0.16796,-1.38867 13.999999,14 0 0 1 -0.03516,-0.99023 13.999999,14 0 0 1 0.07031,-1.39844 13.999999,14 0 0 1 0.20899,-1.38281 13.999999,14 0 0 1 0.3457,-1.35547 13.999999,14 0 0 1 0.48047,-1.31446 13.999999,14 0 0 1 0.60742,-1.261709 13.999999,14 0 0 1 0.73242,-1.19141 13.999999,14 0 0 1 0.84766,-1.11523 13.999999,14 0 0 1 0.953119,-1.02344 13.999999,14 0 0 1 1.05079,-0.92383 13.999999,14 0 0 1 1.13867,-0.8144499 13.999999,14 0 0 1 1.21484,-0.6953199 13.999999,14 0 0 1 1.27734,-0.57226 13.999999,14 0 0 1 1.32813,-0.4414099 13.999999,14 0 0 1 1.365229,-0.30664 13.999999,14 0 0 1 1.38868,-0.16797 13.999999,14 0 0 1 0.99023,-0.03515 L 41.999994,0 0,0 Z"
         id="path5358" />
      <circle
         r="14.000001"
         style="opacity:1;fill:#008080;fill-opacity:1;fill-rule:nonzero;stroke:none;stroke-width:2;stroke-linecap:round;stroke-linejoin:round;stroke-miterlimit:4;stroke-dasharray:6.00000011, 2.00000002;stroke-dashoffset:0;stroke-opacity:1"
         id="circle5360"
         cx="21.000109"
         cy="55.999813" />
      <path
         inkscape:connector-curvature="0"
         style="opacity:1;fill:#008080;fill-opacity:1;fill-rule:nonzero;stroke:none;stroke-width:2;stroke-linecap:round;stroke-linejoin:round;stroke-miterlimit:4;stroke-dasharray:6, 2;stroke-dashoffset:0;stroke-opacity:1"
         d="m 0,34.999997 a 13.999999,14 0 0 0 0.99022986,-0.03516 13.999999,14 0 0 0 1.38867984,-0.16797 13.999999,14 0 0 0 1.3652298,-0.30664 13.999999,14 0 0 0 1.3281298,-0.44141 13.999999,14 0 0 0 1.2773398,-0.57226 13.999999,14 0 0 0 1.2148398,-0.69531 13.999999,14 0 0 0 1.1386699,-0.81446 13.999999,14 0 0 0 1.0507898,-0.92382 13.999999,14 0 0 0 0.9531194,-1.02344 13.999999,14 0 0 0 0.84766,-1.11524 13.999999,14 0 0 0 0.73242,-1.19336 13.999999,14 0 0 0 0.60742,-1.25976 13.999999,14 0 0 0 0.48047,-1.314459 13.999999,14 0 0 0 0.3457,-1.35546 13.999999,14 0 0 0 0.20899,-1.38282 13.999999,14 0 0 0 0.07031,-1.39843 13.999999,14 0 0 0 -0.03516,-0.99024 13.999999,14 0 0 0 -0.16796,-1.38867 13.999999,14 0 0 0 -0.30665,-1.36719 13.999999,14 0 0 0 -0.4414,-1.32617 13.999999,14 0 0 0 -0.57227,-1.277339 13.999999,14 0 0 0 -0.69531,-1.21485 13.999999,14 0 0 0 -0.81445,-1.13867 13.999999,14 0 0 0 -0.923829,-1.05078 A 13.999999,14 0 0 0 9.0195287,10.292969 13.999999,14 0 0 0 7.9042989,9.4453091 13.999999,14 0 0 0 6.712889,8.7128891 13.999999,14 0 0 0 5.4511692,8.1054692 13.999999,14 0 0 0 4.1367194,7.6249992 13.999999,14 0 0 0 2.7812496,7.2792893 13.999999,14 0 0 0 1.3984398,7.0703093 13.999999,14 0 0 0 0,6.9999993 L 0,34.999997 Z"
         id="path5362" />
    </pattern>
    <pattern
       id="pattern5368"
       patternTransform="translate(105.32577,298.98598)"
       height="22.497425"
       width="13.498456"
       patternUnits="userSpaceOnUse">
      <rect
         style="fill:url(#pattern10936-906-732-194-8);stroke:none"
         width="13.498456"
         height="22.497425"
         x="2.7339242e-015"
         y="-2.8144154e-014"
         id="rect5366" />
    </pattern>
    <pattern
       patternTransform="matrix(0.3213918,0,0,0.32139182,2.4829098e-6,-1.2431639e-5)"
       id="pattern5370"
       xlink:href="#pattern10926-828-791-730-9"
       inkscape:collect="always" />
    <pattern
       id="pattern5380"
       patternTransform="translate(105.32577,298.98598)"
       height="69.999989"
       width="41.999994"
       patternUnits="userSpaceOnUse">
      <path
         inkscape:connector-curvature="0"
         style="opacity:1;fill:#008080;fill-opacity:1;fill-rule:nonzero;stroke:none;stroke-width:2;stroke-linecap:round;stroke-linejoin:round;stroke-miterlimit:4;stroke-dasharray:6, 2;stroke-dashoffset:0;stroke-opacity:1"
         d="m 41.999994,6.9999993 a 13.999999,14 0 0 0 -0.99023,0.03515 13.999999,14 0 0 0 -1.38868,0.16797 13.999999,14 0 0 0 -1.365229,0.30664 13.999999,14 0 0 0 -1.32813,0.4414099 13.999999,14 0 0 0 -1.27734,0.57226 13.999999,14 0 0 0 -1.21484,0.6953199 13.999999,14 0 0 0 -1.13867,0.8144499 13.999999,14 0 0 0 -1.05079,0.92383 13.999999,14 0 0 0 -0.953119,1.02344 13.999999,14 0 0 0 -0.84766,1.11523 13.999999,14 0 0 0 -0.73242,1.19141 13.999999,14 0 0 0 -0.60742,1.261709 13.999999,14 0 0 0 -0.48047,1.31446 13.999999,14 0 0 0 -0.3457,1.35547 13.999999,14 0 0 0 -0.20899,1.38281 13.999999,14 0 0 0 -0.07031,1.39844 13.999999,14 0 0 0 0.03516,0.99023 13.999999,14 0 0 0 0.16796,1.38867 13.999999,14 0 0 0 0.30665,1.36524 13.999999,14 0 0 0 0.4414,1.328119 13.999999,14 0 0 0 0.57227,1.27735 13.999999,14 0 0 0 0.69531,1.21484 13.999999,14 0 0 0 0.81445,1.13867 13.999999,14 0 0 0 0.923829,1.05078 13.999999,14 0 0 0 1.02344,0.95313 13.999999,14 0 0 0 1.11523,0.84765 13.999999,14 0 0 0 1.19141,0.73047 13.999999,14 0 0 0 1.26172,0.60938 13.999999,14 0 0 0 1.31445,0.48047 13.999999,14 0 0 0 1.355469,0.3457 13.999999,14 0 0 0 1.38281,0.20898 13.999999,14 0 0 0 1.39844,0.07032 l 0,-27.9999977 z"
         id="path5372" />
      <path
         inkscape:connector-curvature="0"
         style="opacity:1;fill:#de87aa;fill-opacity:1;fill-rule:nonzero;stroke:none;stroke-width:2;stroke-linecap:round;stroke-linejoin:round;stroke-miterlimit:4;stroke-dasharray:6, 2;stroke-dashoffset:0;stroke-opacity:1"
         d="m 0,0 0,6.9999993 a 13.999997,13.999999 0 0 1 1.3984398,0.07031 13.999997,13.999999 0 0 1 1.3828098,0.20898 13.999997,13.999999 0 0 1 1.3554698,0.3457099 13.999997,13.999999 0 0 1 1.3144498,0.48047 13.999997,13.999999 0 0 1 1.2617198,0.6074199 13.999997,13.999999 0 0 1 1.1914099,0.73242 13.999997,13.999999 0 0 1 1.1152298,0.8476599 13.999997,13.999999 0 0 1 1.0234403,0.95312 13.999997,13.999999 0 0 1 0.923829,1.05078 13.999997,13.999999 0 0 1 0.81445,1.13867 13.999997,13.999999 0 0 1 0.69531,1.21485 13.999997,13.999999 0 0 1 0.57227,1.277339 13.999997,13.999999 0 0 1 0.4414,1.32617 13.999997,13.999999 0 0 1 0.30665,1.36719 13.999997,13.999999 0 0 1 0.16796,1.38867 13.999997,13.999999 0 0 1 0.03516,0.99024 13.999997,13.999999 0 0 1 -0.07031,1.39843 13.999997,13.999999 0 0 1 -0.20899,1.38282 13.999997,13.999999 0 0 1 -0.3457,1.35546 13.999997,13.999999 0 0 1 -0.48047,1.314459 13.999997,13.999999 0 0 1 -0.60742,1.25976 13.999997,13.999999 0 0 1 -0.73242,1.19336 13.999997,13.999999 0 0 1 -0.84766,1.11524 13.999997,13.999999 0 0 1 -0.9531194,1.02344 13.999997,13.999999 0 0 1 -1.0507898,0.92382 13.999997,13.999999 0 0 1 -1.1386699,0.81446 13.999997,13.999999 0 0 1 -1.2148398,0.69531 13.999997,13.999999 0 0 1 -1.2773398,0.57226 13.999997,13.999999 0 0 1 -1.3281298,0.44141 13.999997,13.999999 0 0 1 -1.3652298,0.30664 13.999997,13.999999 0 0 1 -1.38867984,0.16797 A 13.999997,13.999999 0 0 1 0,34.999997 l 0,34.999992 41.999994,0 0,-34.999992 a 13.999999,14 0 0 1 -1.39844,-0.07032 13.999999,14 0 0 1 -1.38281,-0.20898 13.999999,14 0 0 1 -1.355469,-0.3457 13.999999,14 0 0 1 -1.31445,-0.48047 13.999999,14 0 0 1 -1.26172,-0.60938 13.999999,14 0 0 1 -1.19141,-0.73047 13.999999,14 0 0 1 -1.11523,-0.84765 13.999999,14 0 0 1 -1.02344,-0.95313 13.999999,14 0 0 1 -0.923829,-1.05078 13.999999,14 0 0 1 -0.81445,-1.13867 13.999999,14 0 0 1 -0.69531,-1.21484 13.999999,14 0 0 1 -0.57227,-1.27735 13.999999,14 0 0 1 -0.4414,-1.328119 13.999999,14 0 0 1 -0.30665,-1.36524 13.999999,14 0 0 1 -0.16796,-1.38867 13.999999,14 0 0 1 -0.03516,-0.99023 13.999999,14 0 0 1 0.07031,-1.39844 13.999999,14 0 0 1 0.20899,-1.38281 13.999999,14 0 0 1 0.3457,-1.35547 13.999999,14 0 0 1 0.48047,-1.31446 13.999999,14 0 0 1 0.60742,-1.261709 13.999999,14 0 0 1 0.73242,-1.19141 13.999999,14 0 0 1 0.84766,-1.11523 13.999999,14 0 0 1 0.953119,-1.02344 13.999999,14 0 0 1 1.05079,-0.92383 13.999999,14 0 0 1 1.13867,-0.8144499 13.999999,14 0 0 1 1.21484,-0.6953199 13.999999,14 0 0 1 1.27734,-0.57226 13.999999,14 0 0 1 1.32813,-0.4414099 13.999999,14 0 0 1 1.365229,-0.30664 13.999999,14 0 0 1 1.38868,-0.16797 13.999999,14 0 0 1 0.99023,-0.03515 L 41.999994,0 0,0 Z"
         id="path5374" />
      <circle
         r="14.000001"
         style="opacity:1;fill:#008080;fill-opacity:1;fill-rule:nonzero;stroke:none;stroke-width:2;stroke-linecap:round;stroke-linejoin:round;stroke-miterlimit:4;stroke-dasharray:6.00000011, 2.00000002;stroke-dashoffset:0;stroke-opacity:1"
         id="circle5376"
         cx="21.000109"
         cy="55.999813" />
      <path
         inkscape:connector-curvature="0"
         style="opacity:1;fill:#008080;fill-opacity:1;fill-rule:nonzero;stroke:none;stroke-width:2;stroke-linecap:round;stroke-linejoin:round;stroke-miterlimit:4;stroke-dasharray:6, 2;stroke-dashoffset:0;stroke-opacity:1"
         d="m 0,34.999997 a 13.999999,14 0 0 0 0.99022986,-0.03516 13.999999,14 0 0 0 1.38867984,-0.16797 13.999999,14 0 0 0 1.3652298,-0.30664 13.999999,14 0 0 0 1.3281298,-0.44141 13.999999,14 0 0 0 1.2773398,-0.57226 13.999999,14 0 0 0 1.2148398,-0.69531 13.999999,14 0 0 0 1.1386699,-0.81446 13.999999,14 0 0 0 1.0507898,-0.92382 13.999999,14 0 0 0 0.9531194,-1.02344 13.999999,14 0 0 0 0.84766,-1.11524 13.999999,14 0 0 0 0.73242,-1.19336 13.999999,14 0 0 0 0.60742,-1.25976 13.999999,14 0 0 0 0.48047,-1.314459 13.999999,14 0 0 0 0.3457,-1.35546 13.999999,14 0 0 0 0.20899,-1.38282 13.999999,14 0 0 0 0.07031,-1.39843 13.999999,14 0 0 0 -0.03516,-0.99024 13.999999,14 0 0 0 -0.16796,-1.38867 13.999999,14 0 0 0 -0.30665,-1.36719 13.999999,14 0 0 0 -0.4414,-1.32617 13.999999,14 0 0 0 -0.57227,-1.277339 13.999999,14 0 0 0 -0.69531,-1.21485 13.999999,14 0 0 0 -0.81445,-1.13867 13.999999,14 0 0 0 -0.923829,-1.05078 A 13.999999,14 0 0 0 9.0195287,10.292969 13.999999,14 0 0 0 7.9042989,9.4453091 13.999999,14 0 0 0 6.712889,8.7128891 13.999999,14 0 0 0 5.4511692,8.1054692 13.999999,14 0 0 0 4.1367194,7.6249992 13.999999,14 0 0 0 2.7812496,7.2792893 13.999999,14 0 0 0 1.3984398,7.0703093 13.999999,14 0 0 0 0,6.9999993 L 0,34.999997 Z"
         id="path5378" />
    </pattern>
  </defs>
  <sodipodi:namedview
     id="base"
     pagecolor="#ffffff"
     bordercolor="#666666"
     borderopacity="1.0"
     inkscape:pageopacity="0.0"
     inkscape:pageshadow="2"
     inkscape:zoom="1"
     inkscape:cx="418.97572"
     inkscape:cy="-279.00381"
     inkscape:document-units="mm"
     inkscape:current-layer="layer1"
     showgrid="false"
     units="px"
     fit-margin-top="1"
     fit-margin-left="1"
     fit-margin-right="1"
     fit-margin-bottom="1"
     inkscape:window-width="1920"
     inkscape:window-height="1052"
     inkscape:window-x="0"
     inkscape:window-y="0"
     inkscape:window-maximized="1" />
  <metadata
     id="metadata4371">
    <rdf:RDF>
      <cc:Work
         rdf:about="">
        <dc:format>image/svg+xml</dc:format>
        <dc:type
           rdf:resource="http://purl.org/dc/dcmitype/StillImage" />
        <dc:title></dc:title>
      </cc:Work>
    </rdf:RDF>
  </metadata>
  <g
     inkscape:label="Layer 1"
     inkscape:groupmode="layer"
     id="layer1"
     transform="translate(152.43138,10.344119)">
    <g
       id="g17450"
       transform="matrix(0.28222223,0,0,0.28222223,-165.65397,-198.98448)"
       style="display:inline;fill:#00aa88;fill-opacity:1">
      <rect
         style="color:#000000;display:inline;overflow:visible;visibility:visible;fill:#00aa88;fill-opacity:1;fill-rule:nonzero;stroke:#0b280b;stroke-width:2.49583793;stroke-miterlimit:4;stroke-dasharray:none;stroke-dashoffset:0;marker:none;enable-background:accumulate"
         id="rect17452"
         width="39.971428"
         height="77.252121"
         x="687.36249"
         y="-140.57593"
         transform="rotate(90)" />
      <rect
         y="-71.663742"
         x="683.67639"
         height="22.626621"
         width="47.343639"
         id="rect17454"
         style="color:#000000;display:inline;overflow:visible;visibility:visible;fill:#00aa88;fill-opacity:1;fill-rule:nonzero;stroke:#0b280b;stroke-width:2.49583793;stroke-miterlimit:4;stroke-dasharray:none;stroke-dashoffset:0;marker:none;enable-background:accumulate"
         transform="rotate(90)" />
    </g>
    <g
       id="g17456"
       transform="matrix(0.28222223,0,0,0.28222223,-165.65397,-198.98448)"
       style="display:inline;fill:#00aa88;fill-opacity:1">
      <rect
         transform="matrix(0,1,1,0,0,0)"
         y="97.915009"
         x="687.36249"
         height="77.252121"
         width="39.971428"
         id="rect17458"
         style="color:#000000;display:inline;overflow:visible;visibility:visible;fill:#00aa88;fill-opacity:1;fill-rule:nonzero;stroke:#0b280b;stroke-width:2.49583793;stroke-miterlimit:4;stroke-dasharray:none;stroke-dashoffset:0;marker:none;enable-background:accumulate" />
      <rect
         transform="matrix(0,1,1,0,0,0)"
         style="color:#000000;display:inline;overflow:visible;visibility:visible;fill:#00aa88;fill-opacity:1;fill-rule:nonzero;stroke:#0b280b;stroke-width:2.49583793;stroke-miterlimit:4;stroke-dasharray:none;stroke-dashoffset:0;marker:none;enable-background:accumulate"
         id="rect17460"
         width="47.343639"
         height="22.626621"
         x="683.67639"
         y="166.82719" />
    </g>
    <path
       inkscape:transform-center-x="-2.063677"
       transform="matrix(0,0.04611835,-0.0856518,0,-84.679461,-0.90335248)"
       d="m 57.12662,378.81889 -47.110379,0 23.555189,-40.79878 z"
       inkscape:randomized="0"
       inkscape:rounded="0"
       inkscape:flatsided="true"
       sodipodi:arg2="1.5707963"
       sodipodi:arg1="0.52359878"
       sodipodi:r2="13.599595"
       sodipodi:r1="27.19919"
       sodipodi:cy="365.2193"
       sodipodi:cx="33.57143"
       sodipodi:sides="3"
       id="path17462"
       style="display:inline;opacity:1;fill:#00ff00;fill-opacity:1;stroke:#000000;stroke-width:7.47155905;stroke-linecap:round;stroke-linejoin:round;stroke-miterlimit:4;stroke-dasharray:none;stroke-dashoffset:0;stroke-opacity:1"
       sodipodi:type="star" />
    <path
       sodipodi:type="star"
       style="display:inline;opacity:1;fill:#ff0000;fill-opacity:1;stroke:#000000;stroke-width:7.47155905;stroke-linecap:round;stroke-linejoin:round;stroke-miterlimit:4;stroke-dasharray:none;stroke-dashoffset:0;stroke-opacity:1"
       id="path17464"
       sodipodi:sides="3"
       sodipodi:cx="33.57143"
       sodipodi:cy="365.2193"
       sodipodi:r1="27.19919"
       sodipodi:r2="13.599595"
       sodipodi:arg1="0.52359878"
       sodipodi:arg2="1.5707963"
       inkscape:flatsided="true"
       inkscape:rounded="0"
       inkscape:randomized="0"
       d="m 57.12662,378.81889 -47.110379,0 23.555189,-40.79878 z"
       transform="matrix(0,0.04611835,-0.0856518,0,-117.92244,-0.90335248)"
       inkscape:transform-center-x="-2.0636753" />
    <path
       style="color:#000000;display:inline;overflow:visible;visibility:visible;fill:#93ac93;fill-opacity:1;fill-rule:nonzero;stroke:#0b280b;stroke-width:0.74457121;stroke-miterlimit:4;stroke-dasharray:none;stroke-dashoffset:0;marker:none;enable-background:accumulate"
       d="M -142.34654,-9.7072505 V 10.997061 h 2.34832 16.39246 1.96354 V -9.7072505 h -1.96354 -16.39246 z"
       id="path17466"
       inkscape:connector-curvature="0" />
    <rect
       y="8.9063435"
       x="-134.54265"
       height="5.1377153"
       width="5.392745"
       id="rect17478"
       style="fill:#eeffaa;fill-opacity:1;stroke:#22280b;stroke-width:0.45746699;stroke-miterlimit:4;stroke-dasharray:none;stroke-dashoffset:0;stroke-opacity:1"
       ry="1.1552786" />
    <text
       xml:space="preserve"
       style="font-style:normal;font-weight:normal;font-size:2.74480176px;line-height:0%;font-family:sans-serif;letter-spacing:0px;word-spacing:0px;fill:#000000;fill-opacity:1;stroke:none;stroke-width:0.22873349"
       x="-107.2056"
       y="15.659471"
       id="text17480"
       transform="scale(1.2476837,0.80148517)"><tspan
         style="font-style:normal;font-variant:normal;font-weight:normal;font-stretch:normal;font-size:4.79253244px;line-height:1.25;font-family:sans-serif;-inkscape-font-specification:sans-serif;stroke-width:0.22873349"
         sodipodi:role="line"
         id="tspan17482"
         x="-107.2056"
         y="15.659471">n</tspan></text>
    <g
       style="display:inline"
       id="g17255"
       transform="matrix(0.1998854,0,0,0.1998854,-248.49919,-151.03318)">
      <path
         style="color:#000000;font-style:normal;font-variant:normal;font-weight:normal;font-stretch:normal;font-size:medium;line-height:normal;font-family:sans-serif;text-indent:0;text-align:start;text-decoration:none;text-decoration-line:none;text-decoration-style:solid;text-decoration-color:#000000;letter-spacing:normal;word-spacing:normal;text-transform:none;writing-mode:lr-tb;direction:ltr;baseline-shift:baseline;text-anchor:start;white-space:normal;clip-rule:nonzero;display:inline;overflow:visible;visibility:visible;opacity:1;isolation:auto;mix-blend-mode:normal;color-interpolation:sRGB;color-interpolation-filters:linearRGB;solid-color:#000000;solid-opacity:1;fill:#b3b3b3;fill-opacity:1;fill-rule:evenodd;stroke:#000000;stroke-width:2.5;stroke-linecap:round;stroke-linejoin:miter;stroke-miterlimit:4;stroke-dasharray:none;stroke-dashoffset:0;stroke-opacity:1;color-rendering:auto;image-rendering:auto;shape-rendering:auto;text-rendering:auto;enable-background:accumulate"
         d="m 577.75573,715.04298 a 2.5393719,2.5071709 0 0 0 -2.6482,2.39333 l -2.551,42.82524 a 2.5393719,2.5071709 0 1 0 5.0683,0.29379 l 2.553,-42.8233 a 2.5393719,2.5071709 0 0 0 -2.4221,-2.68906 z"
         id="path27349"
         inkscape:connector-curvature="0" />
      <path
         style="color:#000000;font-style:normal;font-variant:normal;font-weight:normal;font-stretch:normal;font-size:medium;line-height:normal;font-family:sans-serif;text-indent:0;text-align:start;text-decoration:none;text-decoration-line:none;text-decoration-style:solid;text-decoration-color:#000000;letter-spacing:normal;word-spacing:normal;text-transform:none;writing-mode:lr-tb;direction:ltr;baseline-shift:baseline;text-anchor:start;white-space:normal;clip-rule:nonzero;display:inline;overflow:visible;visibility:visible;opacity:1;isolation:auto;mix-blend-mode:normal;color-interpolation:sRGB;color-interpolation-filters:linearRGB;solid-color:#000000;solid-opacity:1;fill:#ff0000;fill-opacity:1;fill-rule:nonzero;stroke:#000000;stroke-width:2.5;stroke-linecap:round;stroke-linejoin:round;stroke-miterlimit:4;stroke-dasharray:none;stroke-dashoffset:0;stroke-opacity:1;color-rendering:auto;image-rendering:auto;shape-rendering:auto;text-rendering:auto;enable-background:accumulate"
         d="m 579.51143,786.3797 c -3.2159,1.0369 -6.4146,-0.3861 -8.7821,-2.5458 -2.3676,-2.1597 -4.2601,-5.2295 -5.4549,-8.8704 -1.1948,-3.6408 -1.4864,-7.2268 -0.8538,-10.3539 0.6326,-3.12704 2.374,-6.14492 5.5899,-7.18182 3.2159,-1.03691 6.4152,0.38788 8.7827,2.54763 2.3676,2.15975 4.2601,5.22959 5.4549,8.87039 1.1948,3.6408 1.4864,7.2268 0.8538,10.3539 -0.6326,3.1271 -2.3746,6.1431 -5.5905,7.18 z m -1.8783,-5.7237 c 0.4242,-0.1368 1.1248,-0.7822 1.4981,-2.6278 0.3734,-1.8456 0.2343,-4.541 -0.6759,-7.3146 -0.9102,-2.7736 -2.3981,-5.0362 -3.7954,-6.3108 -1.3973,-1.27471 -2.347,-1.38811 -2.7711,-1.25135 -0.4241,0.13676 -1.1247,0.78224 -1.4981,2.62785 -0.3734,1.8456 -0.2337,4.5428 0.6765,7.3164 0.9102,2.7737 2.3975,5.0343 3.7948,6.309 1.3974,1.2747 2.347,1.3881 2.7711,1.2513 z"
         id="path27351"
         inkscape:connector-curvature="0" />
      <path
         style="color:#000000;font-style:normal;font-variant:normal;font-weight:normal;font-stretch:normal;font-size:medium;line-height:normal;font-family:sans-serif;text-indent:0;text-align:start;text-decoration:none;text-decoration-line:none;text-decoration-style:solid;text-decoration-color:#000000;letter-spacing:normal;word-spacing:normal;text-transform:none;writing-mode:lr-tb;direction:ltr;baseline-shift:baseline;text-anchor:start;white-space:normal;clip-rule:nonzero;display:inline;overflow:visible;visibility:visible;opacity:1;isolation:auto;mix-blend-mode:normal;color-interpolation:sRGB;color-interpolation-filters:linearRGB;solid-color:#000000;solid-opacity:1;fill:#b3b3b3;fill-opacity:1;fill-rule:evenodd;stroke:#000000;stroke-width:2.5;stroke-linecap:round;stroke-linejoin:miter;stroke-miterlimit:4;stroke-dasharray:none;stroke-dashoffset:0;stroke-opacity:1;color-rendering:auto;image-rendering:auto;shape-rendering:auto;text-rendering:auto;enable-background:accumulate"
         d="m 561.49153,720.24876 a 2.5393719,2.5071709 0 0 0 -1.9381,4.12271 l 27.482,33.14031 a 2.5393719,2.5071709 0 1 0 3.9277,-3.17478 l -27.48,-33.14227 a 2.5393719,2.5071709 0 0 0 -1.9916,-0.94597 z"
         id="path27353"
         inkscape:connector-curvature="0" />
      <path
         style="color:#000000;font-style:normal;font-variant:normal;font-weight:normal;font-stretch:normal;font-size:medium;line-height:normal;font-family:sans-serif;text-indent:0;text-align:start;text-decoration:none;text-decoration-line:none;text-decoration-style:solid;text-decoration-color:#000000;letter-spacing:normal;word-spacing:normal;text-transform:none;writing-mode:lr-tb;direction:ltr;baseline-shift:baseline;text-anchor:start;white-space:normal;clip-rule:nonzero;display:inline;overflow:visible;visibility:visible;opacity:1;isolation:auto;mix-blend-mode:normal;color-interpolation:sRGB;color-interpolation-filters:linearRGB;solid-color:#000000;solid-opacity:1;fill:#ff0000;fill-opacity:1;fill-rule:nonzero;stroke:#000000;stroke-width:2.5;stroke-linecap:round;stroke-linejoin:round;stroke-miterlimit:4;stroke-dasharray:none;stroke-dashoffset:0;stroke-opacity:1;color-rendering:auto;image-rendering:auto;shape-rendering:auto;text-rendering:auto;enable-background:accumulate"
         d="m 600.83843,779.5031 c 3.2159,-1.0369 4.9579,-4.0529 5.5905,-7.18 0.6326,-3.1271 0.341,-6.7131 -0.8538,-10.35391 -1.1948,-3.64081 -3.0873,-6.71061 -5.4548,-8.87035 -2.3676,-2.15975 -5.5669,-3.58455 -8.7828,-2.54764 -3.2159,1.03691 -4.9573,4.05478 -5.5899,7.18187 -0.6326,3.12711 -0.3409,6.71313 0.8538,10.35393 1.1948,3.6408 3.0874,6.7106 5.4549,8.8703 2.3675,2.1598 5.5663,3.5827 8.7821,2.5458 z m -1.8783,-5.7237 c -0.4241,0.1368 -1.3737,0.023 -2.771,-1.2513 -1.3974,-1.2747 -2.8847,-3.5353 -3.7949,-6.3089 -0.9102,-2.77363 -1.0498,-5.47088 -0.6765,-7.31648 0.3734,-1.8456 1.074,-2.49108 1.4981,-2.62784 0.4241,-0.13676 1.3738,-0.0234 2.7711,1.25131 1.3973,1.27466 2.8852,3.53721 3.7954,6.3108 0.9102,2.77361 1.0493,5.46901 0.6759,7.31461 -0.3733,1.8456 -1.0739,2.4911 -1.4981,2.6278 z"
         id="path27355"
         inkscape:connector-curvature="0" />
    </g>
  </g>
</svg>
