<?xml version="1.0" encoding="UTF-8" standalone="no"?>
<!-- Created with Inkscape (http://www.inkscape.org/) -->

<svg
   xmlns:dc="http://purl.org/dc/elements/1.1/"
   xmlns:cc="http://creativecommons.org/ns#"
   xmlns:rdf="http://www.w3.org/1999/02/22-rdf-syntax-ns#"
   xmlns:svg="http://www.w3.org/2000/svg"
   xmlns="http://www.w3.org/2000/svg"
   xmlns:sodipodi="http://sodipodi.sourceforge.net/DTD/sodipodi-0.dtd"
   xmlns:inkscape="http://www.inkscape.org/namespaces/inkscape"
   width="16.421148mm"
   height="10.970634mm"
   viewBox="0 0 16.421148 10.970634"
   version="1.1"
   id="svg2441"
   inkscape:version="0.92.3 (2405546, 2018-03-11)"
   sodipodi:docname="IdentityFunction.svg">
  <defs
     id="defs2435" />
  <sodipodi:namedview
     id="base"
     pagecolor="#ffffff"
     bordercolor="#666666"
     borderopacity="1.0"
     inkscape:pageopacity="0.0"
     inkscape:pageshadow="2"
     inkscape:zoom="8.7215094"
     inkscape:cx="21.296296"
     inkscape:cy="8.3333333"
     inkscape:document-units="mm"
     inkscape:current-layer="layer1"
     showgrid="false"
     fit-margin-top="1"
     fit-margin-left="1"
     fit-margin-right="1"
     fit-margin-bottom="1"
     inkscape:window-width="1920"
     inkscape:window-height="1052"
     inkscape:window-x="0"
     inkscape:window-y="0"
     inkscape:window-maximized="1" />
  <metadata
     id="metadata2438">
    <rdf:RDF>
      <cc:Work
         rdf:about="">
        <dc:format>image/svg+xml</dc:format>
        <dc:type
           rdf:resource="http://purl.org/dc/dcmitype/StillImage" />
        <dc:title></dc:title>
      </cc:Work>
    </rdf:RDF>
  </metadata>
  <g
     inkscape:label="Layer 1"
     inkscape:groupmode="layer"
     id="layer1"
     transform="translate(-267.71205,-209.11587)">
    <rect
       style="opacity:1;fill:#ffffff;fill-opacity:1;stroke:#000000;stroke-width:0.7055555;stroke-linecap:round;stroke-linejoin:round;stroke-miterlimit:4;stroke-dasharray:none;stroke-dashoffset:0;stroke-opacity:1"
       id="rect18066"
       width="13.715592"
       height="8.2650795"
       x="269.06482"
       y="210.46864"
       ry="4.1325397" />
    <g
       aria-label="i"
       transform="scale(0.9978365,1.0021682)"
       style="font-style:normal;font-weight:normal;font-size:3.38666677px;line-height:0%;font-family:sans-serif;letter-spacing:0px;word-spacing:0px;fill:#000000;fill-opacity:1;stroke:none;stroke-width:0.28222224px;stroke-linecap:butt;stroke-linejoin:miter;stroke-opacity:1"
       id="text18068">
      <path
         d="m 277.05194,211.37422 q 0.2421,0 0.4061,0.16791 0.16791,0.16791 0.16791,0.40611 0,0.23819 -0.16791,0.4061 -0.16791,0.16791 -0.4061,0.16791 -0.23429,0 -0.4022,-0.16791 -0.16791,-0.16791 -0.16791,-0.4061 0,-0.2382 0.164,-0.40611 0.16791,-0.16791 0.40611,-0.16791 z m 0.2421,1.79623 -0.8005,2.77634 q -0.0664,0.2382 -0.0664,0.31239 0,0.043 0.0351,0.082 0.0351,0.0351 0.0742,0.0351 0.0664,0 0.13276,-0.0586 0.17572,-0.14448 0.42173,-0.52325 l 0.13276,0.0781 q -0.58963,1.02697 -1.25345,1.02697 -0.25382,0 -0.40611,-0.14057 -0.14838,-0.14448 -0.14838,-0.36315 0,-0.14448 0.0664,-0.36706 l 0.54277,-1.86651 q 0.0781,-0.26943 0.0781,-0.4061 0,-0.0859 -0.0742,-0.15229 -0.0742,-0.0664 -0.20305,-0.0664 -0.0586,0 -0.14058,0.004 l 0.0508,-0.15619 1.32374,-0.21477 z"
         style="font-style:italic;font-variant:normal;font-weight:bold;font-stretch:normal;font-size:7.9971118px;line-height:1.25;font-family:'Times New Roman';-inkscape-font-specification:'Times New Roman, Bold Italic';text-align:center;text-anchor:middle;fill:#000000;fill-opacity:1;stroke-width:0.28222224px"
         id="path3039" />
    </g>
  </g>
</svg>
