<?xml version="1.0" encoding="UTF-8" standalone="no"?>
<!-- Created with Inkscape (http://www.inkscape.org/) -->

<svg
   xmlns:dc="http://purl.org/dc/elements/1.1/"
   xmlns:cc="http://creativecommons.org/ns#"
   xmlns:rdf="http://www.w3.org/1999/02/22-rdf-syntax-ns#"
   xmlns:svg="http://www.w3.org/2000/svg"
   xmlns="http://www.w3.org/2000/svg"
   xmlns:sodipodi="http://sodipodi.sourceforge.net/DTD/sodipodi-0.dtd"
   xmlns:inkscape="http://www.inkscape.org/namespaces/inkscape"
   width="16.421148mm"
   height="10.970635mm"
   viewBox="0 0 16.421148 10.970635"
   version="1.1"
   id="svg2441"
   inkscape:version="0.92.3 (2405546, 2018-03-11)"
   sodipodi:docname="IfThenElse.svg"
   inkscape:export-filename="/home/sylvain/Workspaces/beepbeep/core/Core/src/doc-files/functions/IdentityFunction.png"
   inkscape:export-xdpi="64"
   inkscape:export-ydpi="64">
  <defs
     id="defs2435" />
  <sodipodi:namedview
     id="base"
     pagecolor="#ffffff"
     bordercolor="#666666"
     borderopacity="1.0"
     inkscape:pageopacity="0.0"
     inkscape:pageshadow="2"
     inkscape:zoom="8.7215094"
     inkscape:cx="21.714464"
     inkscape:cy="11.967698"
     inkscape:document-units="mm"
     inkscape:current-layer="layer1"
     showgrid="false"
     fit-margin-top="1"
     fit-margin-left="1"
     fit-margin-right="1"
     fit-margin-bottom="1"
     inkscape:window-width="1920"
     inkscape:window-height="1052"
     inkscape:window-x="0"
     inkscape:window-y="0"
     inkscape:window-maximized="1" />
  <metadata
     id="metadata2438">
    <rdf:RDF>
      <cc:Work
         rdf:about="">
        <dc:format>image/svg+xml</dc:format>
        <dc:type
           rdf:resource="http://purl.org/dc/dcmitype/StillImage" />
        <dc:title></dc:title>
      </cc:Work>
    </rdf:RDF>
  </metadata>
  <g
     inkscape:label="Layer 1"
     inkscape:groupmode="layer"
     id="layer1"
     transform="translate(-268.05646,-209.38325)">
    <rect
       style="display:inline;opacity:1;fill:#ffffff;fill-opacity:1;stroke:#000000;stroke-width:0.7055555;stroke-linecap:round;stroke-linejoin:round;stroke-miterlimit:4;stroke-dasharray:none;stroke-dashoffset:0;stroke-opacity:1"
       id="rect3986-4"
       width="13.715592"
       height="8.2650795"
       x="269.40924"
       y="210.73602"
       ry="4.1325397" />
    <path
       inkscape:connector-curvature="0"
       id="path3988-2"
       d="m 269.42675,214.68709 c -0.009,0.11328 -0.0176,0.22712 -0.0176,0.34286 0,2.28942 1.84303,4.13246 4.13246,4.13246 h 5.45042 c 2.28943,0 4.13301,-1.84304 4.13301,-4.13246 0,-0.11574 -0.008,-0.22958 -0.0176,-0.34286 z"
       style="display:inline;opacity:1;fill:#afc6e9;fill-opacity:1;stroke:none;stroke-width:0.7055555;stroke-linecap:round;stroke-linejoin:round;stroke-miterlimit:4;stroke-dasharray:none;stroke-dashoffset:0;stroke-opacity:1" />
    <rect
       ry="4.1325397"
       y="210.73602"
       x="269.40924"
       height="8.2650795"
       width="13.715592"
       id="rect3990-2"
       style="display:inline;opacity:1;fill:none;fill-opacity:1;stroke:#000000;stroke-width:0.7055555;stroke-linecap:round;stroke-linejoin:round;stroke-miterlimit:4;stroke-dasharray:none;stroke-dashoffset:0;stroke-opacity:1" />
    <g
       id="g3404"
       transform="translate(0.1973983)">
      <g
         transform="translate(0.72808498,0.24269499)"
         id="g3260">
        <path
           style="fill:#ffffff;stroke:none;stroke-width:0.26458332px;stroke-linecap:butt;stroke-linejoin:miter;stroke-opacity:1"
           d="m 275.4616,216.34439 1.83523,-3.31839 -3.91056,0.0126 z"
           id="path3243"
           inkscape:connector-curvature="0"
           sodipodi:nodetypes="cccc" />
        <path
           style="color:#000000;font-style:normal;font-variant:normal;font-weight:normal;font-stretch:normal;font-size:medium;line-height:normal;font-family:sans-serif;font-variant-ligatures:normal;font-variant-position:normal;font-variant-caps:normal;font-variant-numeric:normal;font-variant-alternates:normal;font-feature-settings:normal;text-indent:0;text-align:start;text-decoration:none;text-decoration-line:none;text-decoration-style:solid;text-decoration-color:#000000;letter-spacing:normal;word-spacing:normal;text-transform:none;writing-mode:lr-tb;direction:ltr;text-orientation:mixed;dominant-baseline:auto;baseline-shift:baseline;text-anchor:start;white-space:normal;shape-padding:0;clip-rule:nonzero;display:inline;overflow:visible;visibility:visible;opacity:1;isolation:auto;mix-blend-mode:normal;color-interpolation:sRGB;color-interpolation-filters:linearRGB;solid-color:#000000;solid-opacity:1;vector-effect:none;fill:#ff0000;fill-opacity:1;fill-rule:nonzero;stroke:#000000;stroke-width:0.11851991;stroke-linecap:round;stroke-linejoin:round;stroke-miterlimit:4;stroke-dasharray:none;stroke-dashoffset:0;stroke-opacity:1;color-rendering:auto;image-rendering:auto;shape-rendering:auto;text-rendering:auto;enable-background:accumulate"
           d="m 273.17522,212.30339 a 0.50655555,0.50655555 0 0 0 -0.43895,0.75778 l 1.08317,1.87808 1.08317,1.8759 a 0.50655555,0.50655555 0 0 0 0.87789,0 l 1.08317,-1.8759 1.08317,-1.87808 a 0.50655555,0.50655555 0 0 0 -0.43675,-0.75778 h -2.16853 z m 0.87571,1.01111 h 1.29063 1.29063 l -0.6464,1.11811 -0.64423,1.11592 -0.64423,-1.11592 z"
           id="path3063"
           inkscape:connector-curvature="0" />
        <path
           style="color:#000000;font-style:normal;font-variant:normal;font-weight:normal;font-stretch:normal;font-size:medium;line-height:normal;font-family:sans-serif;font-variant-ligatures:normal;font-variant-position:normal;font-variant-caps:normal;font-variant-numeric:normal;font-variant-alternates:normal;font-feature-settings:normal;text-indent:0;text-align:start;text-decoration:none;text-decoration-line:none;text-decoration-style:solid;text-decoration-color:#000000;letter-spacing:normal;word-spacing:normal;text-transform:none;writing-mode:lr-tb;direction:ltr;text-orientation:mixed;dominant-baseline:auto;baseline-shift:baseline;text-anchor:start;white-space:normal;shape-padding:0;clip-rule:nonzero;display:inline;overflow:visible;visibility:visible;opacity:1;isolation:auto;mix-blend-mode:normal;color-interpolation:sRGB;color-interpolation-filters:linearRGB;solid-color:#000000;solid-opacity:1;vector-effect:none;fill:#000000;fill-opacity:1;fill-rule:nonzero;stroke:#ffffff;stroke-width:0.11851991;stroke-linecap:round;stroke-linejoin:round;stroke-miterlimit:4;stroke-dasharray:none;stroke-dashoffset:0;stroke-opacity:1;color-rendering:auto;image-rendering:auto;shape-rendering:auto;text-rendering:auto;enable-background:accumulate"
           d="m 273.17459,212.24539 c -0.43113,7.8e-4 -0.70405,0.47133 -0.49024,0.8457 l 1.08399,1.87891 1.08203,1.875 c 0.21622,0.37538 0.76424,0.37538 0.98047,0 l 1.08398,-1.875 1.08399,-1.87891 c 0.2133,-0.37345 -0.0582,-0.84306 -0.48828,-0.8457 h -2.16993 z m 0,0.11719 h 2.16601 2.16797 c 0.34496,0.002 0.55781,0.37037 0.38672,0.66992 l -1.08398,1.87695 -1.08203,1.87695 c -0.1735,0.3012 -0.6019,0.3012 -0.77539,0 l -1.08399,-1.87695 -1.08203,-1.87695 c -0.17152,-0.30032 0.0409,-0.6693 0.38672,-0.66992 z m 0.87109,0.89257 a 0.05926588,0.05926588 0 0 0 -0.0469,0.0899 l 0.64648,1.11718 0.64453,1.11719 a 0.05926588,0.05926588 0 0 0 0.10352,0 l 0.64258,-1.11719 0.64648,-1.11718 a 0.05926588,0.05926588 0 0 0 -0.0508,-0.0899 h -1.29102 -1.28906 a 0.05926588,0.05926588 0 0 0 -0.006,0 z m 0.10938,0.11914 h 1.18554 1.1875 l -0.59375,1.0293 -0.59375,1.02539 -0.59179,-1.02539 z"
           id="path3253"
           inkscape:connector-curvature="0" />
      </g>
    </g>
  </g>
</svg>
