<?xml version="1.0" encoding="UTF-8" standalone="no"?>
<!-- Created with Inkscape (http://www.inkscape.org/) -->

<svg
   xmlns:dc="http://purl.org/dc/elements/1.1/"
   xmlns:cc="http://creativecommons.org/ns#"
   xmlns:rdf="http://www.w3.org/1999/02/22-rdf-syntax-ns#"
   xmlns:svg="http://www.w3.org/2000/svg"
   xmlns="http://www.w3.org/2000/svg"
   xmlns:xlink="http://www.w3.org/1999/xlink"
   xmlns:sodipodi="http://sodipodi.sourceforge.net/DTD/sodipodi-0.dtd"
   xmlns:inkscape="http://www.inkscape.org/namespaces/inkscape"
   width="140.91234"
   height="166.65926"
   viewBox="0 0 37.283055 44.095263"
   version="1.1"
   id="svg6692"
   inkscape:version="0.92.3 (2405546, 2018-03-11)"
   sodipodi:docname="HttpGet.svg">
  <defs
     id="defs6686">
    <pattern
       patternTransform="translate(211.12478,249.18856)"
       id="pattern19516"
       xlink:href="#pattern19087"
       inkscape:collect="always" />
    <pattern
       patternTransform="translate(211.12478,249.18856)"
       id="pattern19514"
       xlink:href="#pattern19087"
       inkscape:collect="always" />
    <marker
       inkscape:isstock="true"
       style="overflow:visible"
       id="marker19218"
       refX="0"
       refY="0"
       orient="auto"
       inkscape:stockid="Arrow1Mend">
      <path
         inkscape:connector-curvature="0"
         transform="matrix(-0.4,0,0,-0.4,-4,0)"
         style="fill:#000000;fill-opacity:1;fill-rule:evenodd;stroke:#000000;stroke-width:1.00000003pt;stroke-opacity:1"
         d="M 0,0 5,-5 -12.5,0 5,5 Z"
         id="path19216" />
    </marker>
    <pattern
       inkscape:collect="always"
       xlink:href="#pattern14012"
       id="pattern19087"
       patternTransform="translate(-162.37544,-44.299377)" />
    <pattern
       inkscape:collect="always"
       xlink:href="#pattern13234"
       id="pattern14012"
       patternTransform="translate(-162.37544,275.2245)" />
    <pattern
       inkscape:collect="always"
       xlink:href="#pattern13228"
       id="pattern13234"
       patternTransform="translate(-162.37544,-190.80306)" />
    <pattern
       inkscape:collect="always"
       xlink:href="#pattern13172"
       id="pattern13228"
       patternTransform="translate(-123.2636,-190.80306)" />
    <pattern
       inkscape:collect="always"
       xlink:href="#pattern13160"
       id="pattern13172"
       patternTransform="translate(83.565131,-190.80306)" />
    <pattern
       inkscape:collect="always"
       xlink:href="#pattern12937"
       id="pattern13160"
       patternTransform="translate(-216.73428,-345.92461)" />
    <pattern
       patternTransform="translate(129.23747,329.20085)"
       id="pattern12937"
       xlink:href="#pattern11271"
       inkscape:collect="always" />
    <pattern
       inkscape:collect="always"
       xlink:href="#pattern10729"
       id="pattern11271"
       patternTransform="translate(-108.74521,-817.75025)" />
    <pattern
       inkscape:collect="always"
       xlink:href="#pattern10723"
       id="pattern10729"
       patternTransform="translate(-315.93271,299.74975)" />
    <pattern
       inkscape:collect="always"
       xlink:href="#pattern10621"
       id="pattern10723"
       patternTransform="translate(-256.87021,291.781)" />
    <pattern
       patternTransform="translate(130.85338,329.2008)"
       id="pattern10621"
       xlink:href="#pattern10938-758-124-313-1-6"
       inkscape:collect="always" />
    <pattern
       id="pattern10938-758-124-313-1-6"
       patternTransform="translate(105.32577,298.98598)"
       height="22.497425"
       width="13.498456"
       patternUnits="userSpaceOnUse">
      <rect
         style="fill:url(#pattern10936-906-732-194-9-9);stroke:none"
         width="13.498456"
         height="22.497425"
         x="2.7339242e-015"
         y="-2.8144154e-014"
         id="rect12091-2-8" />
    </pattern>
    <pattern
       patternTransform="matrix(0.3213918,0,0,0.32139182,2.4829098e-6,-1.2431639e-5)"
       id="pattern10936-906-732-194-9-9"
       xlink:href="#pattern10926-828-791-730-3-2"
       inkscape:collect="always" />
    <pattern
       id="pattern10926-828-791-730-3-2"
       patternTransform="translate(105.32577,298.98598)"
       height="69.999989"
       width="41.999994"
       patternUnits="userSpaceOnUse">
      <path
         inkscape:connector-curvature="0"
         style="opacity:1;fill:#008080;fill-opacity:1;fill-rule:nonzero;stroke:none;stroke-width:2;stroke-linecap:round;stroke-linejoin:round;stroke-miterlimit:4;stroke-dasharray:6, 2;stroke-dashoffset:0;stroke-opacity:1"
         d="m 41.999994,6.9999993 a 13.999999,14 0 0 0 -0.99023,0.03515 13.999999,14 0 0 0 -1.38868,0.16797 13.999999,14 0 0 0 -1.365229,0.30664 13.999999,14 0 0 0 -1.32813,0.4414099 13.999999,14 0 0 0 -1.27734,0.57226 13.999999,14 0 0 0 -1.21484,0.6953199 13.999999,14 0 0 0 -1.13867,0.8144499 13.999999,14 0 0 0 -1.05079,0.92383 13.999999,14 0 0 0 -0.953119,1.02344 13.999999,14 0 0 0 -0.84766,1.11523 13.999999,14 0 0 0 -0.73242,1.19141 13.999999,14 0 0 0 -0.60742,1.261709 13.999999,14 0 0 0 -0.48047,1.31446 13.999999,14 0 0 0 -0.3457,1.35547 13.999999,14 0 0 0 -0.20899,1.38281 13.999999,14 0 0 0 -0.07031,1.39844 13.999999,14 0 0 0 0.03516,0.99023 13.999999,14 0 0 0 0.16796,1.38867 13.999999,14 0 0 0 0.30665,1.36524 13.999999,14 0 0 0 0.4414,1.328119 13.999999,14 0 0 0 0.57227,1.27735 13.999999,14 0 0 0 0.69531,1.21484 13.999999,14 0 0 0 0.81445,1.13867 13.999999,14 0 0 0 0.923829,1.05078 13.999999,14 0 0 0 1.02344,0.95313 13.999999,14 0 0 0 1.11523,0.84765 13.999999,14 0 0 0 1.19141,0.73047 13.999999,14 0 0 0 1.26172,0.60938 13.999999,14 0 0 0 1.31445,0.48047 13.999999,14 0 0 0 1.355469,0.3457 13.999999,14 0 0 0 1.38281,0.20898 13.999999,14 0 0 0 1.39844,0.07032 l 0,-27.9999977 z"
         id="path12095-1-6" />
      <path
         inkscape:connector-curvature="0"
         style="opacity:1;fill:#de87aa;fill-opacity:1;fill-rule:nonzero;stroke:none;stroke-width:2;stroke-linecap:round;stroke-linejoin:round;stroke-miterlimit:4;stroke-dasharray:6, 2;stroke-dashoffset:0;stroke-opacity:1"
         d="m 0,0 0,6.9999993 a 13.999997,13.999999 0 0 1 1.3984398,0.07031 13.999997,13.999999 0 0 1 1.3828098,0.20898 13.999997,13.999999 0 0 1 1.3554698,0.3457099 13.999997,13.999999 0 0 1 1.3144498,0.48047 13.999997,13.999999 0 0 1 1.2617198,0.6074199 13.999997,13.999999 0 0 1 1.1914099,0.73242 13.999997,13.999999 0 0 1 1.1152298,0.8476599 13.999997,13.999999 0 0 1 1.0234403,0.95312 13.999997,13.999999 0 0 1 0.923829,1.05078 13.999997,13.999999 0 0 1 0.81445,1.13867 13.999997,13.999999 0 0 1 0.69531,1.21485 13.999997,13.999999 0 0 1 0.57227,1.277339 13.999997,13.999999 0 0 1 0.4414,1.32617 13.999997,13.999999 0 0 1 0.30665,1.36719 13.999997,13.999999 0 0 1 0.16796,1.38867 13.999997,13.999999 0 0 1 0.03516,0.99024 13.999997,13.999999 0 0 1 -0.07031,1.39843 13.999997,13.999999 0 0 1 -0.20899,1.38282 13.999997,13.999999 0 0 1 -0.3457,1.35546 13.999997,13.999999 0 0 1 -0.48047,1.314459 13.999997,13.999999 0 0 1 -0.60742,1.25976 13.999997,13.999999 0 0 1 -0.73242,1.19336 13.999997,13.999999 0 0 1 -0.84766,1.11524 13.999997,13.999999 0 0 1 -0.9531194,1.02344 13.999997,13.999999 0 0 1 -1.0507898,0.92382 13.999997,13.999999 0 0 1 -1.1386699,0.81446 13.999997,13.999999 0 0 1 -1.2148398,0.69531 13.999997,13.999999 0 0 1 -1.2773398,0.57226 13.999997,13.999999 0 0 1 -1.3281298,0.44141 13.999997,13.999999 0 0 1 -1.3652298,0.30664 13.999997,13.999999 0 0 1 -1.38867984,0.16797 A 13.999997,13.999999 0 0 1 0,34.999997 l 0,34.999992 41.999994,0 0,-34.999992 a 13.999999,14 0 0 1 -1.39844,-0.07032 13.999999,14 0 0 1 -1.38281,-0.20898 13.999999,14 0 0 1 -1.355469,-0.3457 13.999999,14 0 0 1 -1.31445,-0.48047 13.999999,14 0 0 1 -1.26172,-0.60938 13.999999,14 0 0 1 -1.19141,-0.73047 13.999999,14 0 0 1 -1.11523,-0.84765 13.999999,14 0 0 1 -1.02344,-0.95313 13.999999,14 0 0 1 -0.923829,-1.05078 13.999999,14 0 0 1 -0.81445,-1.13867 13.999999,14 0 0 1 -0.69531,-1.21484 13.999999,14 0 0 1 -0.57227,-1.27735 13.999999,14 0 0 1 -0.4414,-1.328119 13.999999,14 0 0 1 -0.30665,-1.36524 13.999999,14 0 0 1 -0.16796,-1.38867 13.999999,14 0 0 1 -0.03516,-0.99023 13.999999,14 0 0 1 0.07031,-1.39844 13.999999,14 0 0 1 0.20899,-1.38281 13.999999,14 0 0 1 0.3457,-1.35547 13.999999,14 0 0 1 0.48047,-1.31446 13.999999,14 0 0 1 0.60742,-1.261709 13.999999,14 0 0 1 0.73242,-1.19141 13.999999,14 0 0 1 0.84766,-1.11523 13.999999,14 0 0 1 0.953119,-1.02344 13.999999,14 0 0 1 1.05079,-0.92383 13.999999,14 0 0 1 1.13867,-0.8144499 13.999999,14 0 0 1 1.21484,-0.6953199 13.999999,14 0 0 1 1.27734,-0.57226 13.999999,14 0 0 1 1.32813,-0.4414099 13.999999,14 0 0 1 1.365229,-0.30664 13.999999,14 0 0 1 1.38868,-0.16797 13.999999,14 0 0 1 0.99023,-0.03515 L 41.999994,0 0,0 Z"
         id="path12097-9-6" />
      <circle
         r="14.000001"
         style="opacity:1;fill:#008080;fill-opacity:1;fill-rule:nonzero;stroke:none;stroke-width:2;stroke-linecap:round;stroke-linejoin:round;stroke-miterlimit:4;stroke-dasharray:6.00000011, 2.00000002;stroke-dashoffset:0;stroke-opacity:1"
         id="circle12099-4-4"
         cx="21.000109"
         cy="55.999813" />
      <path
         inkscape:connector-curvature="0"
         style="opacity:1;fill:#008080;fill-opacity:1;fill-rule:nonzero;stroke:none;stroke-width:2;stroke-linecap:round;stroke-linejoin:round;stroke-miterlimit:4;stroke-dasharray:6, 2;stroke-dashoffset:0;stroke-opacity:1"
         d="m 0,34.999997 a 13.999999,14 0 0 0 0.99022986,-0.03516 13.999999,14 0 0 0 1.38867984,-0.16797 13.999999,14 0 0 0 1.3652298,-0.30664 13.999999,14 0 0 0 1.3281298,-0.44141 13.999999,14 0 0 0 1.2773398,-0.57226 13.999999,14 0 0 0 1.2148398,-0.69531 13.999999,14 0 0 0 1.1386699,-0.81446 13.999999,14 0 0 0 1.0507898,-0.92382 13.999999,14 0 0 0 0.9531194,-1.02344 13.999999,14 0 0 0 0.84766,-1.11524 13.999999,14 0 0 0 0.73242,-1.19336 13.999999,14 0 0 0 0.60742,-1.25976 13.999999,14 0 0 0 0.48047,-1.314459 13.999999,14 0 0 0 0.3457,-1.35546 13.999999,14 0 0 0 0.20899,-1.38282 13.999999,14 0 0 0 0.07031,-1.39843 13.999999,14 0 0 0 -0.03516,-0.99024 13.999999,14 0 0 0 -0.16796,-1.38867 13.999999,14 0 0 0 -0.30665,-1.36719 13.999999,14 0 0 0 -0.4414,-1.32617 13.999999,14 0 0 0 -0.57227,-1.277339 13.999999,14 0 0 0 -0.69531,-1.21485 13.999999,14 0 0 0 -0.81445,-1.13867 13.999999,14 0 0 0 -0.923829,-1.05078 A 13.999999,14 0 0 0 9.0195287,10.292969 13.999999,14 0 0 0 7.9042989,9.4453091 13.999999,14 0 0 0 6.712889,8.7128891 13.999999,14 0 0 0 5.4511692,8.1054692 13.999999,14 0 0 0 4.1367194,7.6249992 13.999999,14 0 0 0 2.7812496,7.2792893 13.999999,14 0 0 0 1.3984398,7.0703093 13.999999,14 0 0 0 0,6.9999993 L 0,34.999997 Z"
         id="path12101-7-9" />
    </pattern>
    <pattern
       inkscape:collect="always"
       xlink:href="#pattern14012"
       id="pattern19421"
       patternTransform="translate(-162.37544,-44.299377)" />
    <pattern
       inkscape:collect="always"
       xlink:href="#pattern13234"
       id="pattern19423"
       patternTransform="translate(-162.37544,275.2245)" />
    <pattern
       inkscape:collect="always"
       xlink:href="#pattern13228"
       id="pattern19425"
       patternTransform="translate(-162.37544,-190.80306)" />
    <pattern
       inkscape:collect="always"
       xlink:href="#pattern13172"
       id="pattern19427"
       patternTransform="translate(-123.2636,-190.80306)" />
    <pattern
       inkscape:collect="always"
       xlink:href="#pattern13160"
       id="pattern19429"
       patternTransform="translate(83.565131,-190.80306)" />
    <pattern
       inkscape:collect="always"
       xlink:href="#pattern12937"
       id="pattern19431"
       patternTransform="translate(-216.73428,-345.92461)" />
    <pattern
       patternTransform="translate(129.23747,329.20085)"
       id="pattern19433"
       xlink:href="#pattern11271"
       inkscape:collect="always" />
    <pattern
       inkscape:collect="always"
       xlink:href="#pattern10729"
       id="pattern19435"
       patternTransform="translate(-108.74521,-817.75025)" />
    <pattern
       inkscape:collect="always"
       xlink:href="#pattern10723"
       id="pattern19437"
       patternTransform="translate(-315.93271,299.74975)" />
    <pattern
       inkscape:collect="always"
       xlink:href="#pattern10621"
       id="pattern19439"
       patternTransform="translate(-256.87021,291.781)" />
    <pattern
       patternTransform="translate(130.85338,329.2008)"
       id="pattern19441"
       xlink:href="#pattern10938-758-124-313-1-6"
       inkscape:collect="always" />
    <pattern
       id="pattern19445"
       patternTransform="translate(105.32577,298.98598)"
       height="22.497425"
       width="13.498456"
       patternUnits="userSpaceOnUse">
      <rect
         style="fill:url(#pattern10936-906-732-194-9-9);stroke:none"
         width="13.498456"
         height="22.497425"
         x="2.7339242e-015"
         y="-2.8144154e-014"
         id="rect19443" />
    </pattern>
    <pattern
       patternTransform="matrix(0.3213918,0,0,0.32139182,2.4829098e-6,-1.2431639e-5)"
       id="pattern19447"
       xlink:href="#pattern10926-828-791-730-3-2"
       inkscape:collect="always" />
    <pattern
       id="pattern19457"
       patternTransform="translate(105.32577,298.98598)"
       height="69.999989"
       width="41.999994"
       patternUnits="userSpaceOnUse">
      <path
         inkscape:connector-curvature="0"
         style="opacity:1;fill:#008080;fill-opacity:1;fill-rule:nonzero;stroke:none;stroke-width:2;stroke-linecap:round;stroke-linejoin:round;stroke-miterlimit:4;stroke-dasharray:6, 2;stroke-dashoffset:0;stroke-opacity:1"
         d="m 41.999994,6.9999993 a 13.999999,14 0 0 0 -0.99023,0.03515 13.999999,14 0 0 0 -1.38868,0.16797 13.999999,14 0 0 0 -1.365229,0.30664 13.999999,14 0 0 0 -1.32813,0.4414099 13.999999,14 0 0 0 -1.27734,0.57226 13.999999,14 0 0 0 -1.21484,0.6953199 13.999999,14 0 0 0 -1.13867,0.8144499 13.999999,14 0 0 0 -1.05079,0.92383 13.999999,14 0 0 0 -0.953119,1.02344 13.999999,14 0 0 0 -0.84766,1.11523 13.999999,14 0 0 0 -0.73242,1.19141 13.999999,14 0 0 0 -0.60742,1.261709 13.999999,14 0 0 0 -0.48047,1.31446 13.999999,14 0 0 0 -0.3457,1.35547 13.999999,14 0 0 0 -0.20899,1.38281 13.999999,14 0 0 0 -0.07031,1.39844 13.999999,14 0 0 0 0.03516,0.99023 13.999999,14 0 0 0 0.16796,1.38867 13.999999,14 0 0 0 0.30665,1.36524 13.999999,14 0 0 0 0.4414,1.328119 13.999999,14 0 0 0 0.57227,1.27735 13.999999,14 0 0 0 0.69531,1.21484 13.999999,14 0 0 0 0.81445,1.13867 13.999999,14 0 0 0 0.923829,1.05078 13.999999,14 0 0 0 1.02344,0.95313 13.999999,14 0 0 0 1.11523,0.84765 13.999999,14 0 0 0 1.19141,0.73047 13.999999,14 0 0 0 1.26172,0.60938 13.999999,14 0 0 0 1.31445,0.48047 13.999999,14 0 0 0 1.355469,0.3457 13.999999,14 0 0 0 1.38281,0.20898 13.999999,14 0 0 0 1.39844,0.07032 l 0,-27.9999977 z"
         id="path19449" />
      <path
         inkscape:connector-curvature="0"
         style="opacity:1;fill:#de87aa;fill-opacity:1;fill-rule:nonzero;stroke:none;stroke-width:2;stroke-linecap:round;stroke-linejoin:round;stroke-miterlimit:4;stroke-dasharray:6, 2;stroke-dashoffset:0;stroke-opacity:1"
         d="m 0,0 0,6.9999993 a 13.999997,13.999999 0 0 1 1.3984398,0.07031 13.999997,13.999999 0 0 1 1.3828098,0.20898 13.999997,13.999999 0 0 1 1.3554698,0.3457099 13.999997,13.999999 0 0 1 1.3144498,0.48047 13.999997,13.999999 0 0 1 1.2617198,0.6074199 13.999997,13.999999 0 0 1 1.1914099,0.73242 13.999997,13.999999 0 0 1 1.1152298,0.8476599 13.999997,13.999999 0 0 1 1.0234403,0.95312 13.999997,13.999999 0 0 1 0.923829,1.05078 13.999997,13.999999 0 0 1 0.81445,1.13867 13.999997,13.999999 0 0 1 0.69531,1.21485 13.999997,13.999999 0 0 1 0.57227,1.277339 13.999997,13.999999 0 0 1 0.4414,1.32617 13.999997,13.999999 0 0 1 0.30665,1.36719 13.999997,13.999999 0 0 1 0.16796,1.38867 13.999997,13.999999 0 0 1 0.03516,0.99024 13.999997,13.999999 0 0 1 -0.07031,1.39843 13.999997,13.999999 0 0 1 -0.20899,1.38282 13.999997,13.999999 0 0 1 -0.3457,1.35546 13.999997,13.999999 0 0 1 -0.48047,1.314459 13.999997,13.999999 0 0 1 -0.60742,1.25976 13.999997,13.999999 0 0 1 -0.73242,1.19336 13.999997,13.999999 0 0 1 -0.84766,1.11524 13.999997,13.999999 0 0 1 -0.9531194,1.02344 13.999997,13.999999 0 0 1 -1.0507898,0.92382 13.999997,13.999999 0 0 1 -1.1386699,0.81446 13.999997,13.999999 0 0 1 -1.2148398,0.69531 13.999997,13.999999 0 0 1 -1.2773398,0.57226 13.999997,13.999999 0 0 1 -1.3281298,0.44141 13.999997,13.999999 0 0 1 -1.3652298,0.30664 13.999997,13.999999 0 0 1 -1.38867984,0.16797 A 13.999997,13.999999 0 0 1 0,34.999997 l 0,34.999992 41.999994,0 0,-34.999992 a 13.999999,14 0 0 1 -1.39844,-0.07032 13.999999,14 0 0 1 -1.38281,-0.20898 13.999999,14 0 0 1 -1.355469,-0.3457 13.999999,14 0 0 1 -1.31445,-0.48047 13.999999,14 0 0 1 -1.26172,-0.60938 13.999999,14 0 0 1 -1.19141,-0.73047 13.999999,14 0 0 1 -1.11523,-0.84765 13.999999,14 0 0 1 -1.02344,-0.95313 13.999999,14 0 0 1 -0.923829,-1.05078 13.999999,14 0 0 1 -0.81445,-1.13867 13.999999,14 0 0 1 -0.69531,-1.21484 13.999999,14 0 0 1 -0.57227,-1.27735 13.999999,14 0 0 1 -0.4414,-1.328119 13.999999,14 0 0 1 -0.30665,-1.36524 13.999999,14 0 0 1 -0.16796,-1.38867 13.999999,14 0 0 1 -0.03516,-0.99023 13.999999,14 0 0 1 0.07031,-1.39844 13.999999,14 0 0 1 0.20899,-1.38281 13.999999,14 0 0 1 0.3457,-1.35547 13.999999,14 0 0 1 0.48047,-1.31446 13.999999,14 0 0 1 0.60742,-1.261709 13.999999,14 0 0 1 0.73242,-1.19141 13.999999,14 0 0 1 0.84766,-1.11523 13.999999,14 0 0 1 0.953119,-1.02344 13.999999,14 0 0 1 1.05079,-0.92383 13.999999,14 0 0 1 1.13867,-0.8144499 13.999999,14 0 0 1 1.21484,-0.6953199 13.999999,14 0 0 1 1.27734,-0.57226 13.999999,14 0 0 1 1.32813,-0.4414099 13.999999,14 0 0 1 1.365229,-0.30664 13.999999,14 0 0 1 1.38868,-0.16797 13.999999,14 0 0 1 0.99023,-0.03515 L 41.999994,0 0,0 Z"
         id="path19451" />
      <circle
         r="14.000001"
         style="opacity:1;fill:#008080;fill-opacity:1;fill-rule:nonzero;stroke:none;stroke-width:2;stroke-linecap:round;stroke-linejoin:round;stroke-miterlimit:4;stroke-dasharray:6.00000011, 2.00000002;stroke-dashoffset:0;stroke-opacity:1"
         id="circle19453"
         cx="21.000109"
         cy="55.999813" />
      <path
         inkscape:connector-curvature="0"
         style="opacity:1;fill:#008080;fill-opacity:1;fill-rule:nonzero;stroke:none;stroke-width:2;stroke-linecap:round;stroke-linejoin:round;stroke-miterlimit:4;stroke-dasharray:6, 2;stroke-dashoffset:0;stroke-opacity:1"
         d="m 0,34.999997 a 13.999999,14 0 0 0 0.99022986,-0.03516 13.999999,14 0 0 0 1.38867984,-0.16797 13.999999,14 0 0 0 1.3652298,-0.30664 13.999999,14 0 0 0 1.3281298,-0.44141 13.999999,14 0 0 0 1.2773398,-0.57226 13.999999,14 0 0 0 1.2148398,-0.69531 13.999999,14 0 0 0 1.1386699,-0.81446 13.999999,14 0 0 0 1.0507898,-0.92382 13.999999,14 0 0 0 0.9531194,-1.02344 13.999999,14 0 0 0 0.84766,-1.11524 13.999999,14 0 0 0 0.73242,-1.19336 13.999999,14 0 0 0 0.60742,-1.25976 13.999999,14 0 0 0 0.48047,-1.314459 13.999999,14 0 0 0 0.3457,-1.35546 13.999999,14 0 0 0 0.20899,-1.38282 13.999999,14 0 0 0 0.07031,-1.39843 13.999999,14 0 0 0 -0.03516,-0.99024 13.999999,14 0 0 0 -0.16796,-1.38867 13.999999,14 0 0 0 -0.30665,-1.36719 13.999999,14 0 0 0 -0.4414,-1.32617 13.999999,14 0 0 0 -0.57227,-1.277339 13.999999,14 0 0 0 -0.69531,-1.21485 13.999999,14 0 0 0 -0.81445,-1.13867 13.999999,14 0 0 0 -0.923829,-1.05078 A 13.999999,14 0 0 0 9.0195287,10.292969 13.999999,14 0 0 0 7.9042989,9.4453091 13.999999,14 0 0 0 6.712889,8.7128891 13.999999,14 0 0 0 5.4511692,8.1054692 13.999999,14 0 0 0 4.1367194,7.6249992 13.999999,14 0 0 0 2.7812496,7.2792893 13.999999,14 0 0 0 1.3984398,7.0703093 13.999999,14 0 0 0 0,6.9999993 L 0,34.999997 Z"
         id="path19455" />
    </pattern>
    <pattern
       inkscape:collect="always"
       xlink:href="#pattern14012"
       id="pattern19459"
       patternTransform="translate(-162.37544,-44.299377)" />
    <pattern
       inkscape:collect="always"
       xlink:href="#pattern13234"
       id="pattern19461"
       patternTransform="translate(-162.37544,275.2245)" />
    <pattern
       inkscape:collect="always"
       xlink:href="#pattern13228"
       id="pattern19463"
       patternTransform="translate(-162.37544,-190.80306)" />
    <pattern
       inkscape:collect="always"
       xlink:href="#pattern13172"
       id="pattern19465"
       patternTransform="translate(-123.2636,-190.80306)" />
    <pattern
       inkscape:collect="always"
       xlink:href="#pattern13160"
       id="pattern19467"
       patternTransform="translate(83.565131,-190.80306)" />
    <pattern
       inkscape:collect="always"
       xlink:href="#pattern12937"
       id="pattern19469"
       patternTransform="translate(-216.73428,-345.92461)" />
    <pattern
       patternTransform="translate(129.23747,329.20085)"
       id="pattern19471"
       xlink:href="#pattern11271"
       inkscape:collect="always" />
    <pattern
       inkscape:collect="always"
       xlink:href="#pattern10729"
       id="pattern19473"
       patternTransform="translate(-108.74521,-817.75025)" />
    <pattern
       inkscape:collect="always"
       xlink:href="#pattern10723"
       id="pattern19475"
       patternTransform="translate(-315.93271,299.74975)" />
    <pattern
       inkscape:collect="always"
       xlink:href="#pattern10621"
       id="pattern19477"
       patternTransform="translate(-256.87021,291.781)" />
    <pattern
       patternTransform="translate(130.85338,329.2008)"
       id="pattern19479"
       xlink:href="#pattern10938-758-124-313-1-6"
       inkscape:collect="always" />
    <pattern
       id="pattern19483"
       patternTransform="translate(105.32577,298.98598)"
       height="22.497425"
       width="13.498456"
       patternUnits="userSpaceOnUse">
      <rect
         style="fill:url(#pattern10936-906-732-194-9-9);stroke:none"
         width="13.498456"
         height="22.497425"
         x="2.7339242e-015"
         y="-2.8144154e-014"
         id="rect19481" />
    </pattern>
    <pattern
       patternTransform="matrix(0.3213918,0,0,0.32139182,2.4829098e-6,-1.2431639e-5)"
       id="pattern19485"
       xlink:href="#pattern10926-828-791-730-3-2"
       inkscape:collect="always" />
    <pattern
       id="pattern19495"
       patternTransform="translate(105.32577,298.98598)"
       height="69.999989"
       width="41.999994"
       patternUnits="userSpaceOnUse">
      <path
         inkscape:connector-curvature="0"
         style="opacity:1;fill:#008080;fill-opacity:1;fill-rule:nonzero;stroke:none;stroke-width:2;stroke-linecap:round;stroke-linejoin:round;stroke-miterlimit:4;stroke-dasharray:6, 2;stroke-dashoffset:0;stroke-opacity:1"
         d="m 41.999994,6.9999993 a 13.999999,14 0 0 0 -0.99023,0.03515 13.999999,14 0 0 0 -1.38868,0.16797 13.999999,14 0 0 0 -1.365229,0.30664 13.999999,14 0 0 0 -1.32813,0.4414099 13.999999,14 0 0 0 -1.27734,0.57226 13.999999,14 0 0 0 -1.21484,0.6953199 13.999999,14 0 0 0 -1.13867,0.8144499 13.999999,14 0 0 0 -1.05079,0.92383 13.999999,14 0 0 0 -0.953119,1.02344 13.999999,14 0 0 0 -0.84766,1.11523 13.999999,14 0 0 0 -0.73242,1.19141 13.999999,14 0 0 0 -0.60742,1.261709 13.999999,14 0 0 0 -0.48047,1.31446 13.999999,14 0 0 0 -0.3457,1.35547 13.999999,14 0 0 0 -0.20899,1.38281 13.999999,14 0 0 0 -0.07031,1.39844 13.999999,14 0 0 0 0.03516,0.99023 13.999999,14 0 0 0 0.16796,1.38867 13.999999,14 0 0 0 0.30665,1.36524 13.999999,14 0 0 0 0.4414,1.328119 13.999999,14 0 0 0 0.57227,1.27735 13.999999,14 0 0 0 0.69531,1.21484 13.999999,14 0 0 0 0.81445,1.13867 13.999999,14 0 0 0 0.923829,1.05078 13.999999,14 0 0 0 1.02344,0.95313 13.999999,14 0 0 0 1.11523,0.84765 13.999999,14 0 0 0 1.19141,0.73047 13.999999,14 0 0 0 1.26172,0.60938 13.999999,14 0 0 0 1.31445,0.48047 13.999999,14 0 0 0 1.355469,0.3457 13.999999,14 0 0 0 1.38281,0.20898 13.999999,14 0 0 0 1.39844,0.07032 l 0,-27.9999977 z"
         id="path19487" />
      <path
         inkscape:connector-curvature="0"
         style="opacity:1;fill:#de87aa;fill-opacity:1;fill-rule:nonzero;stroke:none;stroke-width:2;stroke-linecap:round;stroke-linejoin:round;stroke-miterlimit:4;stroke-dasharray:6, 2;stroke-dashoffset:0;stroke-opacity:1"
         d="m 0,0 0,6.9999993 a 13.999997,13.999999 0 0 1 1.3984398,0.07031 13.999997,13.999999 0 0 1 1.3828098,0.20898 13.999997,13.999999 0 0 1 1.3554698,0.3457099 13.999997,13.999999 0 0 1 1.3144498,0.48047 13.999997,13.999999 0 0 1 1.2617198,0.6074199 13.999997,13.999999 0 0 1 1.1914099,0.73242 13.999997,13.999999 0 0 1 1.1152298,0.8476599 13.999997,13.999999 0 0 1 1.0234403,0.95312 13.999997,13.999999 0 0 1 0.923829,1.05078 13.999997,13.999999 0 0 1 0.81445,1.13867 13.999997,13.999999 0 0 1 0.69531,1.21485 13.999997,13.999999 0 0 1 0.57227,1.277339 13.999997,13.999999 0 0 1 0.4414,1.32617 13.999997,13.999999 0 0 1 0.30665,1.36719 13.999997,13.999999 0 0 1 0.16796,1.38867 13.999997,13.999999 0 0 1 0.03516,0.99024 13.999997,13.999999 0 0 1 -0.07031,1.39843 13.999997,13.999999 0 0 1 -0.20899,1.38282 13.999997,13.999999 0 0 1 -0.3457,1.35546 13.999997,13.999999 0 0 1 -0.48047,1.314459 13.999997,13.999999 0 0 1 -0.60742,1.25976 13.999997,13.999999 0 0 1 -0.73242,1.19336 13.999997,13.999999 0 0 1 -0.84766,1.11524 13.999997,13.999999 0 0 1 -0.9531194,1.02344 13.999997,13.999999 0 0 1 -1.0507898,0.92382 13.999997,13.999999 0 0 1 -1.1386699,0.81446 13.999997,13.999999 0 0 1 -1.2148398,0.69531 13.999997,13.999999 0 0 1 -1.2773398,0.57226 13.999997,13.999999 0 0 1 -1.3281298,0.44141 13.999997,13.999999 0 0 1 -1.3652298,0.30664 13.999997,13.999999 0 0 1 -1.38867984,0.16797 A 13.999997,13.999999 0 0 1 0,34.999997 l 0,34.999992 41.999994,0 0,-34.999992 a 13.999999,14 0 0 1 -1.39844,-0.07032 13.999999,14 0 0 1 -1.38281,-0.20898 13.999999,14 0 0 1 -1.355469,-0.3457 13.999999,14 0 0 1 -1.31445,-0.48047 13.999999,14 0 0 1 -1.26172,-0.60938 13.999999,14 0 0 1 -1.19141,-0.73047 13.999999,14 0 0 1 -1.11523,-0.84765 13.999999,14 0 0 1 -1.02344,-0.95313 13.999999,14 0 0 1 -0.923829,-1.05078 13.999999,14 0 0 1 -0.81445,-1.13867 13.999999,14 0 0 1 -0.69531,-1.21484 13.999999,14 0 0 1 -0.57227,-1.27735 13.999999,14 0 0 1 -0.4414,-1.328119 13.999999,14 0 0 1 -0.30665,-1.36524 13.999999,14 0 0 1 -0.16796,-1.38867 13.999999,14 0 0 1 -0.03516,-0.99023 13.999999,14 0 0 1 0.07031,-1.39844 13.999999,14 0 0 1 0.20899,-1.38281 13.999999,14 0 0 1 0.3457,-1.35547 13.999999,14 0 0 1 0.48047,-1.31446 13.999999,14 0 0 1 0.60742,-1.261709 13.999999,14 0 0 1 0.73242,-1.19141 13.999999,14 0 0 1 0.84766,-1.11523 13.999999,14 0 0 1 0.953119,-1.02344 13.999999,14 0 0 1 1.05079,-0.92383 13.999999,14 0 0 1 1.13867,-0.8144499 13.999999,14 0 0 1 1.21484,-0.6953199 13.999999,14 0 0 1 1.27734,-0.57226 13.999999,14 0 0 1 1.32813,-0.4414099 13.999999,14 0 0 1 1.365229,-0.30664 13.999999,14 0 0 1 1.38868,-0.16797 13.999999,14 0 0 1 0.99023,-0.03515 L 41.999994,0 0,0 Z"
         id="path19489" />
      <circle
         r="14.000001"
         style="opacity:1;fill:#008080;fill-opacity:1;fill-rule:nonzero;stroke:none;stroke-width:2;stroke-linecap:round;stroke-linejoin:round;stroke-miterlimit:4;stroke-dasharray:6.00000011, 2.00000002;stroke-dashoffset:0;stroke-opacity:1"
         id="circle19491"
         cx="21.000109"
         cy="55.999813" />
      <path
         inkscape:connector-curvature="0"
         style="opacity:1;fill:#008080;fill-opacity:1;fill-rule:nonzero;stroke:none;stroke-width:2;stroke-linecap:round;stroke-linejoin:round;stroke-miterlimit:4;stroke-dasharray:6, 2;stroke-dashoffset:0;stroke-opacity:1"
         d="m 0,34.999997 a 13.999999,14 0 0 0 0.99022986,-0.03516 13.999999,14 0 0 0 1.38867984,-0.16797 13.999999,14 0 0 0 1.3652298,-0.30664 13.999999,14 0 0 0 1.3281298,-0.44141 13.999999,14 0 0 0 1.2773398,-0.57226 13.999999,14 0 0 0 1.2148398,-0.69531 13.999999,14 0 0 0 1.1386699,-0.81446 13.999999,14 0 0 0 1.0507898,-0.92382 13.999999,14 0 0 0 0.9531194,-1.02344 13.999999,14 0 0 0 0.84766,-1.11524 13.999999,14 0 0 0 0.73242,-1.19336 13.999999,14 0 0 0 0.60742,-1.25976 13.999999,14 0 0 0 0.48047,-1.314459 13.999999,14 0 0 0 0.3457,-1.35546 13.999999,14 0 0 0 0.20899,-1.38282 13.999999,14 0 0 0 0.07031,-1.39843 13.999999,14 0 0 0 -0.03516,-0.99024 13.999999,14 0 0 0 -0.16796,-1.38867 13.999999,14 0 0 0 -0.30665,-1.36719 13.999999,14 0 0 0 -0.4414,-1.32617 13.999999,14 0 0 0 -0.57227,-1.277339 13.999999,14 0 0 0 -0.69531,-1.21485 13.999999,14 0 0 0 -0.81445,-1.13867 13.999999,14 0 0 0 -0.923829,-1.05078 A 13.999999,14 0 0 0 9.0195287,10.292969 13.999999,14 0 0 0 7.9042989,9.4453091 13.999999,14 0 0 0 6.712889,8.7128891 13.999999,14 0 0 0 5.4511692,8.1054692 13.999999,14 0 0 0 4.1367194,7.6249992 13.999999,14 0 0 0 2.7812496,7.2792893 13.999999,14 0 0 0 1.3984398,7.0703093 13.999999,14 0 0 0 0,6.9999993 L 0,34.999997 Z"
         id="path19493" />
    </pattern>
  </defs>
  <sodipodi:namedview
     id="base"
     pagecolor="#ffffff"
     bordercolor="#666666"
     borderopacity="1.0"
     inkscape:pageopacity="0.0"
     inkscape:pageshadow="2"
     inkscape:zoom="1.4142136"
     inkscape:cx="169.63892"
     inkscape:cy="87.110909"
     inkscape:document-units="mm"
     inkscape:current-layer="layer1"
     showgrid="false"
     units="px"
     fit-margin-top="1"
     fit-margin-left="1"
     fit-margin-right="1"
     fit-margin-bottom="1"
     inkscape:window-width="958"
     inkscape:window-height="1049"
     inkscape:window-x="0"
     inkscape:window-y="0"
     inkscape:window-maximized="0" />
  <metadata
     id="metadata6689">
    <rdf:RDF>
      <cc:Work
         rdf:about="">
        <dc:format>image/svg+xml</dc:format>
        <dc:type
           rdf:resource="http://purl.org/dc/dcmitype/StillImage" />
        <dc:title></dc:title>
      </cc:Work>
    </rdf:RDF>
  </metadata>
  <g
     inkscape:label="Layer 1"
     inkscape:groupmode="layer"
     id="layer1"
     transform="translate(-243.66165,-315.99348)">
    <g
       style="display:inline;fill:#800080;fill-opacity:1"
       transform="matrix(0.28222223,0,0,0.28222223,226.85985,149.47031)"
       id="g12737">
      <rect
         style="color:#000000;display:inline;overflow:visible;visibility:visible;fill:#800080;fill-opacity:1;fill-rule:nonzero;stroke:#0b280b;stroke-width:2.49583793;stroke-miterlimit:4;stroke-dasharray:none;stroke-dashoffset:0;marker:none;enable-background:accumulate"
         id="rect12733"
         width="39.971428"
         height="77.252121"
         x="687.36249"
         y="97.915009"
         transform="matrix(0,1,1,0,0,0)" />
      <rect
         y="166.82719"
         x="683.67639"
         height="22.626621"
         width="47.343639"
         id="rect12735"
         style="color:#000000;display:inline;overflow:visible;visibility:visible;fill:#800080;fill-opacity:1;fill-rule:nonzero;stroke:#0b280b;stroke-width:2.49583793;stroke-miterlimit:4;stroke-dasharray:none;stroke-dashoffset:0;marker:none;enable-background:accumulate"
         transform="matrix(0,1,1,0,0,0)" />
    </g>
    <path
       sodipodi:type="star"
       style="display:inline;opacity:1;fill:#00ff00;fill-opacity:1;stroke:#000000;stroke-width:7.47155905;stroke-linecap:round;stroke-linejoin:round;stroke-miterlimit:4;stroke-dasharray:none;stroke-dashoffset:0;stroke-opacity:1"
       id="path12739"
       sodipodi:sides="3"
       sodipodi:cx="33.57143"
       sodipodi:cy="365.2193"
       sodipodi:r1="27.19919"
       sodipodi:r2="13.599595"
       sodipodi:arg1="0.52359878"
       sodipodi:arg2="1.5707963"
       inkscape:flatsided="true"
       inkscape:rounded="0"
       inkscape:randomized="0"
       d="m 57.12662,378.81889 -47.110379,0 23.555189,-40.79878 z"
       transform="matrix(0,0.04611835,-0.0856518,0,307.83434,347.55144)"
       inkscape:transform-center-x="-2.063677" />
    <path
       inkscape:connector-curvature="0"
       id="path12743"
       d="m 250.16728,338.74755 v 20.70432 h 2.34832 16.39246 1.96353 v -20.70432 h -1.96353 -16.39246 z"
       style="color:#000000;display:inline;overflow:visible;visibility:visible;fill:#93ac93;fill-opacity:1;fill-rule:nonzero;stroke:#0b280b;stroke-width:0.74457121;stroke-miterlimit:4;stroke-dasharray:none;stroke-dashoffset:0;marker:none;enable-background:accumulate" />
    <path
       style="display:inline;fill:none;fill-rule:evenodd;stroke:#000000;stroke-width:0.25212362px;stroke-linecap:butt;stroke-linejoin:miter;stroke-opacity:1"
       d="M 260.51944,334.77672 V 322.94561"
       id="path12753"
       inkscape:connector-curvature="0" />
    <circle
       style="display:inline;fill:#c8b7b7;fill-opacity:1;stroke:#241c1c;stroke-width:0.42333335;stroke-miterlimit:22.92558479;stroke-dasharray:none;stroke-dashoffset:0;stroke-opacity:1"
       id="circle12755"
       cx="260.51944"
       cy="337.71729"
       r="3.1988528" />
    <rect
       ry="0.93898475"
       y="316.61084"
       x="244.27901"
       height="6.1972961"
       width="33.240059"
       id="rect12757"
       style="display:inline;fill:#f9f9f9;fill-opacity:1;stroke:#000000;stroke-width:0.70555556;stroke-linecap:round;stroke-miterlimit:4;stroke-dasharray:none;stroke-dashoffset:0" />
    <text
       xml:space="preserve"
       style="font-style:normal;font-weight:normal;font-size:3.38666677px;line-height:0%;font-family:sans-serif;letter-spacing:0px;word-spacing:0px;display:inline;fill:#000000;fill-opacity:1;stroke:none;stroke-width:0.28222224px;stroke-linecap:butt;stroke-linejoin:miter;stroke-opacity:1"
       x="261.2215"
       y="321.21637"
       id="text12762"><tspan
         id="tspan12759"
         sodipodi:role="line"
         x="261.2215"
         y="321.21637"
         style="font-style:normal;font-variant:normal;font-weight:normal;font-stretch:normal;font-size:4.23333311px;line-height:1.25;font-family:'Liberation Mono';-inkscape-font-specification:'Liberation Mono';text-align:center;text-anchor:middle;stroke-width:0.28222224px">http://...</tspan></text>
    <g
       style="display:inline"
       id="g12910"
       transform="matrix(0.02727161,0,0,0.02727161,253.53779,342.1181)">
      <path
         id="path12849"
         d="M 503.111,255.999 C 431.98,230.703 398.323,149.451 430.734,81.266 v 0 0 C 362.551,113.678 281.297,80.021 256.001,8.89 v 0 0 C 230.705,80.022 149.452,113.679 81.268,81.267 v 0 0 C 113.679,149.451 80.023,230.704 8.892,256 v 0 0 c 71.131,25.296 104.788,106.548 72.376,174.733 v 0 0 c 68.184,-32.411 149.437,1.245 174.733,72.376 v 0 0 c 25.296,-71.131 106.548,-104.788 174.733,-72.376 v 0 0 c -32.411,-68.184 1.245,-149.438 72.377,-174.734 z"
         style="fill:#eee5dd"
         inkscape:connector-curvature="0" />
      <path
         id="path12851"
         d="m 511.904,254.751 c -0.012,-0.088 -0.025,-0.174 -0.04,-0.261 -0.07,-0.408 -0.161,-0.808 -0.284,-1.195 -0.006,-0.019 -0.014,-0.038 -0.021,-0.057 -0.123,-0.377 -0.275,-0.741 -0.446,-1.094 -0.031,-0.064 -0.059,-0.127 -0.091,-0.19 -0.184,-0.358 -0.388,-0.702 -0.615,-1.029 -0.037,-0.052 -0.077,-0.101 -0.115,-0.153 -0.212,-0.29 -0.44,-0.568 -0.685,-0.83 -0.046,-0.05 -0.089,-0.102 -0.136,-0.151 -0.274,-0.281 -0.569,-0.542 -0.878,-0.785 -0.068,-0.052 -0.135,-0.102 -0.204,-0.153 -0.667,-0.494 -1.405,-0.895 -2.197,-1.188 -0.036,-0.013 -0.066,-0.033 -0.102,-0.046 -31.537,-11.215 -56.973,-35.384 -69.781,-66.309 -12.808,-30.925 -11.915,-66 2.455,-96.23 0.015,-0.032 0.024,-0.066 0.038,-0.098 0.354,-0.771 0.594,-1.58 0.716,-2.404 0.012,-0.081 0.025,-0.16 0.034,-0.239 0.049,-0.394 0.072,-0.789 0.068,-1.185 0,-0.063 -0.006,-0.126 -0.008,-0.188 -0.013,-0.365 -0.047,-0.729 -0.104,-1.091 -0.009,-0.058 -0.015,-0.116 -0.025,-0.174 -0.07,-0.396 -0.171,-0.786 -0.295,-1.171 -0.02,-0.064 -0.044,-0.126 -0.066,-0.19 -0.13,-0.375 -0.281,-0.744 -0.464,-1.102 -0.007,-0.014 -0.013,-0.03 -0.021,-0.044 -0.187,-0.363 -0.407,-0.711 -0.646,-1.05 -0.05,-0.071 -0.102,-0.14 -0.154,-0.209 -0.249,-0.331 -0.514,-0.653 -0.816,-0.954 -0.301,-0.301 -0.624,-0.567 -0.954,-0.816 -0.07,-0.052 -0.139,-0.104 -0.21,-0.154 -0.339,-0.239 -0.686,-0.459 -1.048,-0.645 -0.018,-0.009 -0.036,-0.015 -0.052,-0.025 -0.354,-0.18 -0.718,-0.328 -1.089,-0.458 -0.068,-0.024 -0.134,-0.049 -0.202,-0.071 -0.381,-0.123 -0.767,-0.222 -1.158,-0.292 -0.066,-0.012 -0.133,-0.019 -0.199,-0.028 -0.349,-0.055 -0.699,-0.088 -1.051,-0.101 -0.074,-0.002 -0.147,-0.009 -0.22,-0.011 -0.389,-0.005 -0.776,0.02 -1.163,0.066 -0.09,0.011 -0.179,0.025 -0.269,0.039 -0.817,0.123 -1.618,0.36 -2.382,0.711 -0.034,0.015 -0.071,0.024 -0.105,0.04 C 410.834,80.882 393.748,84.76 376.134,84.76 326.063,84.761 281.152,53.075 264.381,5.91 264.368,5.874 264.349,5.844 264.335,5.808 264.041,5.015 263.64,4.276 263.145,3.608 263.095,3.542 263.048,3.475 262.998,3.411 262.753,3.099 262.492,2.803 262.209,2.527 262.163,2.482 262.114,2.442 262.067,2.398 261.8,2.149 261.519,1.918 261.224,1.702 261.177,1.666 261.13,1.63 261.082,1.595 260.752,1.365 260.405,1.16 260.045,0.975 259.986,0.944 259.925,0.918 259.866,0.888 259.507,0.714 259.137,0.56 258.753,0.434 258.74,0.429 258.727,0.423 258.713,0.42 258.323,0.296 257.919,0.203 257.507,0.133 257.425,0.119 257.343,0.107 257.26,0.095 256.847,0.04 256.43,0 256.002,0 c -0.428,0 -0.845,0.04 -1.257,0.098 -0.083,0.012 -0.165,0.024 -0.247,0.038 -0.411,0.07 -0.816,0.162 -1.206,0.287 -0.014,0.005 -0.026,0.011 -0.04,0.014 -0.384,0.124 -0.754,0.28 -1.113,0.454 -0.059,0.028 -0.12,0.056 -0.179,0.087 -0.36,0.185 -0.706,0.39 -1.037,0.62 -0.049,0.034 -0.095,0.071 -0.142,0.107 -0.295,0.215 -0.576,0.447 -0.843,0.696 -0.047,0.044 -0.096,0.084 -0.142,0.129 -0.283,0.276 -0.544,0.573 -0.789,0.884 -0.05,0.064 -0.098,0.13 -0.147,0.197 -0.494,0.669 -0.896,1.406 -1.19,2.199 -0.013,0.036 -0.033,0.066 -0.046,0.102 -16.769,47.16 -61.68,78.846 -111.755,78.85 -17.608,0.001 -34.695,-3.876 -50.784,-11.524 -0.034,-0.017 -0.071,-0.025 -0.105,-0.04 -0.765,-0.351 -1.565,-0.588 -2.382,-0.711 -0.089,-0.013 -0.177,-0.027 -0.267,-0.038 -0.388,-0.046 -0.776,-0.071 -1.165,-0.066 -0.072,0.001 -0.143,0.007 -0.215,0.011 -0.353,0.013 -0.707,0.046 -1.057,0.101 -0.066,0.011 -0.132,0.017 -0.198,0.028 -0.391,0.07 -0.778,0.168 -1.158,0.292 -0.069,0.023 -0.136,0.047 -0.204,0.071 -0.369,0.128 -0.731,0.277 -1.083,0.455 -0.019,0.009 -0.039,0.018 -0.059,0.027 -0.36,0.186 -0.707,0.404 -1.044,0.643 -0.073,0.051 -0.143,0.104 -0.215,0.158 -0.33,0.248 -0.651,0.513 -0.952,0.813 -0.301,0.301 -0.567,0.624 -0.816,0.954 -0.052,0.069 -0.103,0.139 -0.154,0.209 -0.239,0.339 -0.459,0.688 -0.646,1.05 -0.007,0.014 -0.013,0.03 -0.021,0.044 -0.183,0.358 -0.333,0.728 -0.464,1.102 -0.023,0.063 -0.046,0.126 -0.066,0.19 -0.124,0.385 -0.224,0.776 -0.295,1.171 -0.011,0.058 -0.017,0.116 -0.025,0.174 -0.057,0.362 -0.091,0.725 -0.104,1.091 -0.002,0.063 -0.008,0.124 -0.008,0.188 -0.005,0.396 0.019,0.792 0.068,1.185 0.009,0.081 0.023,0.16 0.034,0.239 0.122,0.825 0.362,1.634 0.716,2.404 0.015,0.032 0.024,0.066 0.038,0.098 14.37,30.231 15.266,65.306 2.456,96.23 -12.81,30.924 -38.245,55.094 -69.782,66.309 -0.036,0.013 -0.068,0.033 -0.102,0.046 -0.792,0.293 -1.529,0.693 -2.197,1.188 -0.069,0.051 -0.136,0.1 -0.204,0.153 -0.309,0.243 -0.605,0.503 -0.878,0.785 -0.047,0.049 -0.09,0.101 -0.136,0.151 -0.245,0.262 -0.473,0.539 -0.685,0.83 -0.038,0.052 -0.078,0.101 -0.115,0.153 -0.228,0.327 -0.431,0.672 -0.615,1.029 -0.032,0.063 -0.06,0.127 -0.091,0.19 -0.171,0.353 -0.322,0.716 -0.446,1.093 -0.006,0.019 -0.014,0.038 -0.021,0.057 -0.123,0.386 -0.215,0.787 -0.285,1.195 -0.015,0.087 -0.027,0.173 -0.04,0.261 -0.053,0.41 -0.094,0.825 -0.094,1.251 0,0.426 0.04,0.839 0.098,1.249 0.012,0.088 0.025,0.174 0.04,0.261 0.07,0.408 0.161,0.808 0.285,1.195 0.006,0.019 0.014,0.038 0.021,0.057 0.123,0.377 0.275,0.74 0.446,1.093 0.031,0.064 0.059,0.127 0.091,0.19 0.184,0.358 0.388,0.702 0.615,1.029 0.037,0.052 0.077,0.101 0.115,0.153 0.212,0.29 0.44,0.568 0.685,0.83 0.046,0.05 0.089,0.102 0.136,0.151 0.274,0.281 0.569,0.542 0.878,0.785 0.068,0.052 0.135,0.102 0.204,0.153 0.667,0.494 1.405,0.895 2.197,1.188 0.036,0.013 0.066,0.033 0.102,0.046 31.537,11.215 56.974,35.385 69.782,66.309 12.808,30.924 11.914,65.998 -2.456,96.23 -0.015,0.032 -0.024,0.066 -0.038,0.098 -0.354,0.771 -0.594,1.58 -0.716,2.405 -0.012,0.081 -0.025,0.159 -0.034,0.239 -0.049,0.394 -0.072,0.789 -0.068,1.185 0,0.063 0.006,0.126 0.008,0.188 0.013,0.365 0.047,0.729 0.104,1.091 0.009,0.058 0.015,0.116 0.025,0.174 0.071,0.396 0.171,0.786 0.295,1.171 0.02,0.064 0.044,0.126 0.066,0.19 0.13,0.375 0.281,0.744 0.464,1.102 0.007,0.014 0.013,0.03 0.021,0.044 0.186,0.363 0.407,0.711 0.646,1.05 0.05,0.071 0.102,0.14 0.154,0.21 0.249,0.331 0.514,0.653 0.816,0.953 0.3,0.301 0.622,0.565 0.953,0.814 0.071,0.053 0.141,0.105 0.212,0.156 0.338,0.239 0.685,0.458 1.046,0.644 0.019,0.009 0.038,0.017 0.057,0.026 0.352,0.179 0.715,0.327 1.083,0.456 0.069,0.024 0.136,0.05 0.205,0.072 0.381,0.122 0.766,0.22 1.156,0.29 0.068,0.012 0.135,0.019 0.202,0.03 0.349,0.055 0.699,0.088 1.051,0.101 0.073,0.002 0.146,0.009 0.218,0.011 0.034,0 0.069,0.005 0.103,0.005 0.354,0 0.709,-0.028 1.062,-0.071 0.089,-0.011 0.178,-0.025 0.267,-0.038 0.817,-0.123 1.618,-0.36 2.383,-0.711 0.034,-0.015 0.071,-0.024 0.105,-0.04 16.086,-7.646 33.172,-11.524 50.785,-11.524 50.072,0 94.983,31.688 111.755,78.851 0.013,0.037 0.033,0.069 0.047,0.105 0.293,0.791 0.693,1.527 1.185,2.193 0.051,0.069 0.1,0.138 0.153,0.204 0.243,0.309 0.503,0.603 0.784,0.878 0.05,0.047 0.102,0.091 0.152,0.138 0.262,0.244 0.538,0.472 0.829,0.684 0.051,0.038 0.101,0.078 0.153,0.115 0.327,0.228 0.671,0.432 1.028,0.615 0.063,0.032 0.128,0.062 0.192,0.092 0.352,0.17 0.715,0.321 1.091,0.445 0.02,0.006 0.038,0.015 0.058,0.021 0.386,0.123 0.787,0.215 1.194,0.284 0.087,0.015 0.173,0.027 0.261,0.04 0.409,0.058 0.824,0.098 1.249,0.098 0.426,0 0.839,-0.04 1.249,-0.098 0.088,-0.012 0.174,-0.025 0.261,-0.04 0.408,-0.07 0.807,-0.161 1.194,-0.284 0.02,-0.006 0.039,-0.014 0.058,-0.021 0.377,-0.123 0.74,-0.275 1.092,-0.445 0.064,-0.031 0.128,-0.06 0.192,-0.092 0.357,-0.183 0.701,-0.386 1.028,-0.615 0.052,-0.037 0.102,-0.077 0.153,-0.115 0.29,-0.211 0.567,-0.44 0.829,-0.684 0.05,-0.046 0.102,-0.09 0.152,-0.138 0.281,-0.274 0.541,-0.569 0.784,-0.878 0.052,-0.068 0.102,-0.135 0.153,-0.204 0.493,-0.666 0.893,-1.402 1.185,-2.193 0.013,-0.037 0.034,-0.068 0.047,-0.104 16.771,-47.163 61.682,-78.851 111.755,-78.851 17.611,0 34.697,3.878 50.784,11.524 0.034,0.017 0.071,0.025 0.105,0.04 0.765,0.351 1.566,0.588 2.384,0.711 0.089,0.013 0.177,0.027 0.266,0.038 0.353,0.043 0.708,0.071 1.062,0.071 0.034,0 0.069,-0.005 0.102,-0.005 0.075,-0.001 0.147,-0.008 0.222,-0.011 0.35,-0.013 0.698,-0.046 1.046,-0.1 0.07,-0.011 0.139,-0.018 0.209,-0.03 0.389,-0.07 0.772,-0.167 1.15,-0.289 0.073,-0.024 0.143,-0.05 0.216,-0.076 0.362,-0.127 0.717,-0.273 1.063,-0.448 0.025,-0.012 0.05,-0.021 0.075,-0.034 0.358,-0.185 0.703,-0.402 1.037,-0.639 0.075,-0.052 0.148,-0.107 0.22,-0.162 0.328,-0.248 0.65,-0.512 0.948,-0.811 0.301,-0.301 0.567,-0.624 0.816,-0.953 0.052,-0.07 0.104,-0.139 0.154,-0.21 0.239,-0.339 0.46,-0.688 0.646,-1.05 0.007,-0.014 0.013,-0.03 0.021,-0.044 0.183,-0.358 0.333,-0.728 0.463,-1.102 0.023,-0.063 0.046,-0.126 0.066,-0.19 0.124,-0.385 0.224,-0.775 0.295,-1.171 0.011,-0.058 0.017,-0.116 0.025,-0.174 0.057,-0.362 0.091,-0.725 0.104,-1.091 0.002,-0.063 0.008,-0.124 0.008,-0.188 0.005,-0.396 -0.019,-0.792 -0.068,-1.185 -0.009,-0.081 -0.023,-0.16 -0.034,-0.239 -0.122,-0.825 -0.362,-1.634 -0.716,-2.405 -0.015,-0.032 -0.024,-0.066 -0.038,-0.098 -14.37,-30.231 -15.265,-65.305 -2.455,-96.23 12.81,-30.924 38.244,-55.094 69.781,-66.309 0.036,-0.013 0.068,-0.032 0.102,-0.046 0.792,-0.293 1.529,-0.693 2.197,-1.188 0.069,-0.051 0.136,-0.1 0.204,-0.153 0.309,-0.243 0.605,-0.503 0.878,-0.785 0.047,-0.049 0.09,-0.101 0.136,-0.151 0.245,-0.262 0.473,-0.539 0.685,-0.83 0.038,-0.052 0.078,-0.101 0.115,-0.153 0.228,-0.327 0.431,-0.672 0.615,-1.029 0.032,-0.063 0.06,-0.126 0.091,-0.19 0.171,-0.353 0.322,-0.716 0.446,-1.094 0.006,-0.019 0.014,-0.038 0.021,-0.057 0.123,-0.386 0.215,-0.787 0.284,-1.195 0.015,-0.087 0.027,-0.173 0.04,-0.261 0.058,-0.409 0.098,-0.824 0.098,-1.249 10e-4,-0.426 -0.044,-0.842 -0.101,-1.251 z M 92.124,188.118 c 9.897,-23.895 12.667,-49.941 8.417,-75.007 l 43.228,43.228 c -1.888,16.537 -6.03,32.681 -12.391,48.039 -6.361,15.356 -14.849,29.701 -25.208,42.731 H 45.037 c 20.73,-14.718 37.189,-35.096 47.087,-58.991 z m 94.934,39.322 c -2.763,6.67 -5.87,13.26 -9.237,19.669 H 128.28 c 7.733,-11.262 14.286,-23.281 19.523,-35.927 5.238,-12.646 9.104,-25.778 11.599,-39.209 l 35.03,35.03 c -2.15,6.911 -4.612,13.767 -7.374,20.437 z m 7.374,77.555 -35.03,35.03 c -2.494,-13.431 -6.361,-26.563 -11.599,-39.209 -5.237,-12.645 -11.79,-24.665 -19.523,-35.927 h 49.541 c 3.368,6.411 6.474,12.999 9.234,19.666 2.763,6.676 5.227,13.532 7.377,20.44 z M 92.124,323.882 C 82.226,299.987 65.767,279.61 45.037,264.892 h 61.132 c 10.359,13.03 18.846,27.375 25.208,42.731 6.361,15.358 10.503,31.503 12.391,48.039 L 100.54,398.89 c 4.25,-25.069 1.481,-51.114 -8.416,-75.008 z m 154.987,143.097 c -25.162,-35.403 -66.394,-57.521 -111.241,-57.521 -7.657,0 -15.223,0.658 -22.675,1.923 l 43.196,-43.197 c 33.217,3.84 64.415,16.808 90.719,37.712 v 61.084 h 10e-4 z m 0,-83.2 c -22.668,-15.594 -48.142,-26.184 -75.098,-31.217 l 35.02,-35.02 c 13.82,4.31 27.258,9.895 40.078,16.653 z M 197.718,247.11 c 2.038,-4.244 3.975,-8.537 5.767,-12.865 1.791,-4.327 3.458,-8.731 5.017,-13.17 l 26.034,26.035 z m 36.819,17.781 -26.035,26.035 c -1.559,-4.439 -3.226,-8.843 -5.017,-13.171 -1.791,-4.327 -3.727,-8.619 -5.765,-12.864 z m 12.574,49.393 c -8.467,-4.077 -17.157,-7.686 -26.013,-10.806 l 26.013,-26.014 z m 0,-79.748 -26.014,-26.014 c 8.857,-3.12 17.547,-6.73 26.014,-10.806 z m 0,-56.731 c -12.822,6.759 -26.261,12.343 -40.078,16.653 l -35.02,-35.02 c 26.954,-5.032 52.43,-15.623 75.098,-31.218 z m 0,-71.702 c -26.306,20.905 -57.504,33.875 -90.72,37.713 l -43.194,-43.194 c 7.448,1.265 15.01,1.922 22.664,1.922 h 0.007 c 44.849,-0.004 86.083,-22.121 111.244,-57.522 v 61.081 z m 17.781,-61.081 c 25.162,35.403 66.396,57.523 111.241,57.522 7.657,0 15.222,-0.658 22.674,-1.923 l -43.196,43.197 C 322.395,139.98 291.199,127.011 264.893,106.106 V 45.022 Z m 69.29,202.088 c -3.367,-6.411 -6.474,-12.999 -9.234,-19.666 -2.766,-6.677 -5.228,-13.533 -7.377,-20.438 l 35.03,-35.03 c 2.494,13.43 6.361,26.562 11.599,39.209 5.237,12.645 11.79,24.665 19.523,35.927 h -49.541 z m 49.541,17.781 c -7.733,11.262 -14.286,23.281 -19.523,35.927 -5.238,12.647 -9.105,25.779 -11.599,39.209 l -35.03,-35.03 c 2.15,-6.91 4.612,-13.765 7.375,-20.434 2.764,-6.67 5.871,-13.26 9.237,-19.67 h 49.541 v -0.002 z M 264.892,128.223 c 22.669,15.595 48.142,26.185 75.097,31.217 l -35.02,35.02 c -13.82,-4.31 -27.258,-9.894 -40.077,-16.652 z m 49.394,136.668 c -2.038,4.244 -3.975,8.537 -5.768,12.865 -1.791,4.327 -3.458,8.729 -5.017,13.169 L 277.467,264.89 h 36.819 z M 277.465,247.11 303.5,221.075 c 1.559,4.438 3.224,8.842 5.017,13.172 1.792,4.327 3.728,8.618 5.766,12.863 z m -12.573,-49.393 c 8.466,4.077 17.155,7.686 26.013,10.805 l -26.013,26.013 z m 0,79.748 26.013,26.013 c -8.857,3.12 -17.547,6.73 -26.013,10.806 z m 0,56.73 c 12.822,-6.758 26.26,-12.341 40.078,-16.652 l 35.02,35.02 c -26.954,5.032 -52.429,15.622 -75.097,31.217 v -49.585 z m 111.242,75.262 c -44.847,0 -86.08,22.119 -111.241,57.521 v -61.082 c 26.306,-20.905 57.503,-33.874 90.719,-37.712 l 43.196,43.196 c -7.452,-1.265 -15.018,-1.923 -22.674,-1.923 z M 419.88,323.88 c -9.898,23.895 -12.669,49.942 -8.417,75.008 L 368.236,355.66 c 1.887,-16.535 6.029,-32.681 12.39,-48.039 6.361,-15.356 14.849,-29.701 25.208,-42.731 h 61.133 c -20.731,14.719 -37.189,35.097 -47.087,58.99 z m -14.045,-76.77 c -10.359,-13.03 -18.846,-27.375 -25.208,-42.731 -6.361,-15.358 -10.503,-31.504 -12.39,-48.039 l 43.228,-43.228 c -4.251,25.067 -1.481,51.113 8.417,75.009 9.898,23.893 26.357,44.271 47.087,58.99 h -61.134 z"
         style="fill:#5a595c"
         inkscape:connector-curvature="0" />
      <path
         id="path12853"
         d="m 511.904,254.751 c -0.012,-0.088 -0.025,-0.174 -0.04,-0.261 -0.07,-0.408 -0.161,-0.808 -0.284,-1.195 -0.006,-0.019 -0.014,-0.038 -0.021,-0.057 -0.123,-0.377 -0.275,-0.741 -0.446,-1.094 -0.031,-0.064 -0.059,-0.127 -0.091,-0.19 -0.184,-0.358 -0.388,-0.702 -0.615,-1.029 -0.037,-0.052 -0.077,-0.101 -0.115,-0.153 -0.212,-0.29 -0.44,-0.568 -0.685,-0.83 -0.046,-0.05 -0.089,-0.102 -0.136,-0.151 -0.274,-0.281 -0.569,-0.542 -0.878,-0.785 -0.068,-0.052 -0.135,-0.102 -0.204,-0.153 -0.667,-0.494 -1.405,-0.895 -2.197,-1.188 -0.036,-0.013 -0.066,-0.033 -0.102,-0.046 -31.537,-11.215 -56.973,-35.384 -69.781,-66.309 -12.808,-30.925 -11.915,-66 2.455,-96.23 0.015,-0.032 0.024,-0.066 0.038,-0.098 0.354,-0.771 0.594,-1.58 0.716,-2.404 0.012,-0.081 0.025,-0.16 0.034,-0.239 0.049,-0.394 0.072,-0.789 0.068,-1.185 0,-0.063 -0.006,-0.126 -0.008,-0.188 -0.013,-0.365 -0.047,-0.729 -0.104,-1.091 -0.009,-0.058 -0.015,-0.116 -0.025,-0.174 -0.07,-0.396 -0.171,-0.786 -0.295,-1.171 -0.02,-0.064 -0.044,-0.126 -0.066,-0.19 -0.13,-0.375 -0.281,-0.744 -0.464,-1.102 -0.007,-0.014 -0.013,-0.03 -0.021,-0.044 -0.187,-0.363 -0.407,-0.711 -0.646,-1.05 -0.05,-0.071 -0.102,-0.14 -0.154,-0.209 -0.249,-0.331 -0.514,-0.653 -0.816,-0.954 -0.301,-0.301 -0.624,-0.567 -0.954,-0.816 -0.07,-0.052 -0.139,-0.104 -0.21,-0.154 -0.339,-0.239 -0.686,-0.459 -1.048,-0.645 -0.018,-0.009 -0.036,-0.015 -0.052,-0.025 -0.354,-0.18 -0.718,-0.328 -1.089,-0.458 -0.068,-0.024 -0.134,-0.049 -0.202,-0.071 -0.381,-0.123 -0.767,-0.222 -1.158,-0.292 -0.066,-0.012 -0.133,-0.019 -0.199,-0.028 -0.349,-0.055 -0.699,-0.088 -1.051,-0.101 -0.074,-0.002 -0.147,-0.009 -0.22,-0.011 -0.389,-0.005 -0.776,0.02 -1.163,0.066 -0.09,0.011 -0.179,0.025 -0.269,0.039 -0.817,0.123 -1.618,0.36 -2.382,0.711 -0.034,0.015 -0.071,0.024 -0.105,0.04 C 410.834,80.882 393.748,84.76 376.134,84.76 326.063,84.761 281.152,53.075 264.381,5.91 264.368,5.874 264.349,5.844 264.335,5.808 264.041,5.015 263.64,4.276 263.145,3.608 263.095,3.542 263.048,3.475 262.998,3.411 262.753,3.099 262.492,2.803 262.209,2.527 262.163,2.482 262.114,2.442 262.067,2.398 261.8,2.149 261.519,1.918 261.224,1.702 261.177,1.666 261.13,1.63 261.082,1.595 260.752,1.365 260.405,1.16 260.045,0.975 259.986,0.944 259.925,0.918 259.866,0.888 259.507,0.714 259.137,0.56 258.753,0.434 258.74,0.429 258.727,0.423 258.713,0.42 258.323,0.296 257.919,0.203 257.507,0.133 257.425,0.119 257.343,0.107 257.26,0.095 256.847,0.04 256.43,0 256.002,0 v 0 512 0 c 0.424,0 0.839,-0.04 1.249,-0.098 0.088,-0.012 0.174,-0.025 0.261,-0.04 0.408,-0.07 0.807,-0.161 1.194,-0.285 0.02,-0.006 0.039,-0.014 0.058,-0.021 0.377,-0.123 0.74,-0.275 1.092,-0.445 0.064,-0.031 0.128,-0.06 0.192,-0.092 0.357,-0.183 0.701,-0.386 1.028,-0.615 0.052,-0.037 0.102,-0.077 0.153,-0.115 0.29,-0.211 0.567,-0.44 0.829,-0.684 0.05,-0.046 0.102,-0.09 0.152,-0.138 0.281,-0.274 0.541,-0.569 0.784,-0.878 0.052,-0.068 0.102,-0.135 0.153,-0.204 0.493,-0.666 0.893,-1.402 1.185,-2.193 0.013,-0.037 0.034,-0.068 0.047,-0.104 16.771,-47.163 61.682,-78.851 111.755,-78.851 17.611,0 34.697,3.878 50.784,11.524 0.034,0.017 0.071,0.025 0.105,0.04 0.765,0.351 1.566,0.588 2.384,0.711 0.089,0.013 0.177,0.027 0.266,0.038 0.353,0.043 0.708,0.071 1.062,0.071 0.034,0 0.069,-0.005 0.102,-0.005 0.075,-10e-4 0.147,-0.008 0.222,-0.011 0.35,-0.013 0.698,-0.046 1.046,-0.1 0.07,-0.011 0.139,-0.018 0.209,-0.03 0.389,-0.07 0.772,-0.167 1.15,-0.289 0.074,-0.024 0.143,-0.05 0.216,-0.076 0.362,-0.127 0.717,-0.273 1.063,-0.448 0.025,-0.012 0.05,-0.021 0.075,-0.034 0.358,-0.185 0.703,-0.402 1.037,-0.639 0.075,-0.052 0.148,-0.107 0.22,-0.162 0.328,-0.248 0.65,-0.512 0.948,-0.811 0.301,-0.301 0.567,-0.624 0.816,-0.953 0.052,-0.07 0.104,-0.139 0.154,-0.21 0.239,-0.339 0.46,-0.688 0.646,-1.05 0.007,-0.014 0.013,-0.03 0.021,-0.044 0.183,-0.358 0.333,-0.728 0.463,-1.102 0.023,-0.063 0.046,-0.126 0.066,-0.19 0.125,-0.385 0.224,-0.775 0.295,-1.171 0.011,-0.058 0.017,-0.116 0.025,-0.174 0.057,-0.362 0.091,-0.725 0.104,-1.091 0.002,-0.063 0.008,-0.124 0.008,-0.188 0.005,-0.396 -0.019,-0.792 -0.068,-1.185 -0.009,-0.081 -0.023,-0.16 -0.034,-0.239 -0.122,-0.825 -0.362,-1.633 -0.716,-2.405 -0.015,-0.032 -0.024,-0.066 -0.038,-0.098 -14.37,-30.231 -15.265,-65.305 -2.455,-96.23 12.81,-30.924 38.244,-55.094 69.781,-66.309 0.036,-0.013 0.068,-0.032 0.102,-0.046 0.792,-0.293 1.529,-0.693 2.197,-1.188 0.069,-0.051 0.136,-0.1 0.204,-0.153 0.309,-0.243 0.605,-0.503 0.878,-0.785 0.047,-0.049 0.09,-0.101 0.136,-0.151 0.245,-0.262 0.473,-0.539 0.685,-0.83 0.038,-0.052 0.078,-0.101 0.115,-0.153 0.228,-0.327 0.432,-0.672 0.615,-1.029 0.032,-0.063 0.06,-0.126 0.091,-0.19 0.171,-0.353 0.322,-0.716 0.446,-1.094 0.006,-0.019 0.014,-0.038 0.021,-0.057 0.123,-0.386 0.215,-0.787 0.284,-1.195 0.015,-0.087 0.027,-0.173 0.04,-0.261 0.058,-0.409 0.098,-0.824 0.098,-1.249 0.002,-0.427 -0.042,-0.836 -0.099,-1.245 z M 264.892,45.022 c 25.162,35.403 66.396,57.523 111.241,57.522 7.657,0 15.222,-0.658 22.674,-1.923 l -43.196,43.197 C 322.395,139.98 291.199,127.011 264.893,106.106 V 45.022 Z m 69.29,202.088 c -3.367,-6.411 -6.474,-12.999 -9.234,-19.666 -2.766,-6.677 -5.228,-13.533 -7.377,-20.438 l 35.03,-35.03 c 2.494,13.43 6.361,26.562 11.599,39.209 5.237,12.645 11.79,24.665 19.523,35.927 h -49.541 z m 49.541,17.781 c -7.733,11.262 -14.286,23.281 -19.523,35.927 -5.238,12.647 -9.105,25.779 -11.599,39.209 l -35.03,-35.03 c 2.15,-6.91 4.612,-13.765 7.375,-20.434 2.764,-6.67 5.871,-13.26 9.237,-19.67 h 49.541 v -0.002 z M 264.892,128.223 c 22.669,15.595 48.142,26.185 75.097,31.217 l -35.02,35.02 c -13.82,-4.31 -27.258,-9.894 -40.077,-16.652 z m 49.394,136.668 c -2.038,4.244 -3.975,8.537 -5.768,12.865 -1.791,4.327 -3.458,8.729 -5.017,13.169 L 277.467,264.89 h 36.819 z M 277.465,247.11 303.5,221.075 c 1.559,4.438 3.224,8.842 5.017,13.172 1.792,4.327 3.728,8.618 5.766,12.863 z m -12.573,-49.393 c 8.466,4.077 17.155,7.686 26.013,10.805 l -26.013,26.013 z m 0,79.748 26.013,26.013 c -8.857,3.12 -17.547,6.73 -26.013,10.806 z m 0,56.73 c 12.822,-6.758 26.26,-12.341 40.078,-16.652 l 35.02,35.02 c -26.954,5.032 -52.429,15.622 -75.097,31.217 v -49.585 z m 111.242,75.262 c -44.847,0 -86.08,22.119 -111.241,57.521 v -61.082 c 26.306,-20.905 57.503,-33.874 90.719,-37.712 l 43.196,43.196 c -7.452,-1.265 -15.018,-1.923 -22.674,-1.923 z M 419.88,323.88 c -9.898,23.895 -12.669,49.942 -8.417,75.008 L 368.236,355.66 c 1.887,-16.535 6.029,-32.681 12.39,-48.039 6.361,-15.356 14.849,-29.701 25.208,-42.731 h 61.133 c -20.731,14.719 -37.189,35.097 -47.087,58.99 z m -14.045,-76.77 c -10.359,-13.03 -18.846,-27.375 -25.208,-42.731 -6.361,-15.358 -10.503,-31.504 -12.39,-48.039 l 43.228,-43.228 c -4.251,25.067 -1.481,51.113 8.417,75.009 9.898,23.893 26.357,44.271 47.087,58.99 h -61.134 z"
         style="opacity:0.3;fill:#20272e;enable-background:new"
         inkscape:connector-curvature="0" />
      <g
         id="g12855" />
      <g
         id="g12857" />
      <g
         id="g12859" />
      <g
         id="g12861" />
      <g
         id="g12863" />
      <g
         id="g12865" />
      <g
         id="g12867" />
      <g
         id="g12869" />
      <g
         id="g12871" />
      <g
         id="g12873" />
      <g
         id="g12875" />
      <g
         id="g12877" />
      <g
         id="g12879" />
      <g
         id="g12881" />
      <g
         id="g12883" />
    </g>
  </g>
</svg>
